<?xml version="1.0" standalone="no"?><!DOCTYPE svg PUBLIC "-//W3C//DTD SVG 1.1//EN" "http://www.w3.org/Graphics/SVG/1.1/DTD/svg11.dtd" ><svg xmlns="http://www.w3.org/2000/svg"><metadata></metadata><defs><font id="fonteditor" horiz-adv-x="2200"><font-face font-family="e°u[_+OS" font-weight="400" font-stretch="normal" units-per-em="2048" panose-1="3 0 6 0 0 0 0 0 0 0" ascent="1400" descent="-500" x-height="0" bbox="-114 -509 2057 1705" underline-thickness="150" underline-position="-217" unicode-range="U+0030-9875" /><missing-glyph horiz-adv-x="2200" d="M781 -362 L781 1359 L2020 1359 L2020 -362 L781 -362 ZM877 -266 L1924 -266 L1924 1263 L877 1263 L877 -266 Z" /><glyph glyph-name="zero" unicode="0" d="M660 1107 L686 1107 Q753 1092 753 1066 Q753 1057 743 1035 L717 1040 Q691 1040 649 1014 L649 1003 Q835 949 915 853 Q977 728 977 603 Q977 378 748 213 Q631 135 509 135 L467 135 Q331 135 254 281 Q223 319 223 395 L223 442 Q247 705 400 936 Q436 970 436 988 Q431 988 389 1050 L400 1055 Q476 1045 483 1045 L488 1045 Q500 1045 582 1097 Q631 1107 660 1107 ZM571 941 Q429 789 374 509 Q348 416 348 327 Q355 234 379 234 L395 234 Q652 234 811 499 Q852 600 852 681 Q852 850 769 879 Q657 941 571 941 Z" /><glyph glyph-name="two" unicode="2" d="M749 1191 Q967 1145 967 1014 L967 988 Q967 875 785 676 Q673 527 483 385 Q330 267 286 223 Q383 208 390 208 L499 208 Q718 234 733 234 Q977 289 977 359 L1003 374 Q1113 355 1113 265 Q1113 259 1118 249 Q1086 171 1009 171 Q1009 160 868 140 L832 145 Q782 140 775 135 Q741 140 650 145 Q611 135 608 135 Q470 135 229 182 L182 234 L182 239 Q385 418 546 587 Q847 932 847 1050 L847 1076 L790 1076 Q677 1070 457 951 Q370 906 286 827 Q270 792 182 686 Q129 686 99 769 Q91 769 83 785 L83 811 Q213 1031 515 1144 Q624 1191 749 1191 Z" /><glyph glyph-name="R" unicode="r" d="M498 1322 L607 1322 Q853 1322 1029 1199 Q1071 1141 1068 1057 L1068 1052 Q1063 916 745 693 L746 696 Q894 559 964 418 Q964 411 1153 126 Q1180 81 1178 21 Q1167 21 1155 0 Q1093 0 972 169 L972 192 L987 192 Q880 354 768 535 L669 648 Q552 584 385 514 L384 464 L388 427 L382 427 Q383 442 389 442 L382 406 L385 370 L385 372 L384 364 Q384 349 385 349 L384 351 Q376 231 375 203 Q376 128 376 110 Q368 110 363 102 Q365 58 366 -61 L342 -88 L306 -88 Q242 -39 208 99 Q204 99 185 139 L185 148 L193 167 Q255 156 262 152 L262 158 L240 190 L241 213 Q247 382 229 557 L249 568 Q261 562 253 562 L261 786 Q262 816 268 857 L262 869 Q269 881 269 890 Q269 896 263 896 L271 943 L274 1036 Q275 1050 261 1069 L263 1126 Q186 1099 118 1083 Q57 1083 12 1187 Q318 1322 498 1322 ZM337 1155 Q398 1155 390 926 Q392 926 395 693 L524 756 L524 753 L513 775 Q617 775 867 1017 Q930 1089 931 1135 L932 1154 Q813 1192 671 1192 Q390 1192 337 1155 Z" /><glyph glyph-name="S" unicode="s" d="M562 1239 Q629 1239 691 1159 L696 1131 L696 1110 Q680 983 657 923 Q621 923 612 992 Q616 1034 616 1061 L616 1120 L598 1120 Q493 1120 346 922 Q288 837 288 765 Q288 714 467 686 Q960 631 960 584 Q1084 534 1084 407 Q1017 223 783 104 Q548 -35 394 -35 L382 -35 Q170 -35 117 152 Q82 181 76 405 L94 417 Q139 393 144 371 L144 312 Q177 176 210 124 Q226 103 262 103 Q490 103 769 295 Q872 346 955 483 Q894 508 500 553 Q297 606 242 681 Q184 788 180 828 L180 844 Q180 1030 441 1213 Q500 1239 562 1239 Z" /><glyph glyph-name="uni4E3B" unicode="&#x4e3b;" d="M780 1341 Q972 1247 988 1209 L988 1199 Q957 1077 865 1077 Q795 1194 704 1322 L780 1341 ZM1205 906 Q1231 906 1356 878 L1356 868 Q1356 814 732 717 L732 669 L761 669 Q874 669 1016 509 Q1170 499 1196 452 Q1185 417 1016 329 Q997 217 997 111 Q1014 102 1035 102 Q1129 102 1423 111 Q1849 78 1849 -12 Q1831 -59 1773 -59 Q1380 17 1234 17 Q905 17 212 -144 Q51 -92 51 -59 L51 -40 Q207 -40 713 64 Q817 97 817 178 Q817 240 827 273 Q795 291 770 291 Q713 291 590 253 L477 376 L477 386 Q622 404 808 461 L808 481 Q808 534 685 689 L685 698 Q574 689 524 689 L515 689 Q435 700 363 774 L363 802 L373 802 Q448 770 448 764 L1205 906 Z" /><glyph glyph-name="uni4E8E" unicode="&#x4e8e;" d="M1093 1364 L1124 1364 Q1279 1353 1279 1302 L1279 1271 Q1219 1179 1031 1043 Q1082 983 1124 867 L1424 920 Q1578 892 1578 857 L1578 785 Q1578 767 1527 755 Q1455 765 1402 795 Q1175 774 1175 702 Q1175 589 1216 589 Q1198 589 1185 42 Q1118 -403 979 -403 Q772 -225 772 -207 L772 -186 L845 -186 L969 -197 Q1061 42 1061 258 L1061 589 Q1061 603 1041 702 Q385 496 287 475 L255 475 Q204 475 204 537 Q216 563 700 712 Q711 730 989 827 Q943 971 907 971 L823 971 L823 992 Q876 1069 876 1094 L865 1094 L730 1054 Q503 1081 503 1168 Q899 1312 1093 1364 Z" /><glyph glyph-name="uni4EAB" unicode="&#x4eab;" d="M633 1588 L718 1588 Q898 1567 898 1417 Q936 1417 1125 1436 Q1286 1385 1286 1351 L1286 1294 Q1215 1313 1078 1313 Q986 1313 501 1200 L501 1161 Q709 1044 709 887 L709 859 L766 859 Q974 890 974 1058 L974 1086 Q798 1030 746 1030 Q715 1037 690 1086 L690 1115 Q1049 1266 1097 1266 Q1210 1171 1210 1133 Q1210 1126 1078 935 Q1173 864 1173 850 L1173 840 L1106 840 L1106 831 L1153 765 L1153 708 Q1090 606 965 452 Q1003 348 1068 348 Q1186 348 1532 462 Q1712 406 1712 301 L1692 301 Q1404 301 1116 263 L1116 197 Q1116 -390 917 -390 Q738 -333 709 -333 L709 -305 L746 -305 Q888 -305 954 -125 Q974 -83 974 -2 L974 187 Q974 206 954 206 Q503 83 273 36 Q224 36 188 93 Q616 206 936 282 L936 301 L822 423 Q936 538 936 642 Q687 515 595 423 L567 423 Q558 423 472 518 Q512 679 586 679 Q617 679 643 603 Q895 701 1011 774 L1011 802 L993 802 Q746 802 746 736 L746 688 L680 688 Q543 688 472 1115 Q265 1220 264 1238 Q693 1343 766 1398 Q766 1446 633 1588 Z" /><glyph glyph-name="uni4EEA" unicode="&#x4eea;" d="M647 1288 L656 1288 Q862 1209 921 1062 Q930 1046 930 1014 Q930 1001 883 977 L855 977 Q786 1023 750 1023 L713 1023 Q732 1095 732 1099 Q713 1161 647 1288 ZM1176 1128 Q1223 1128 1243 1080 L1243 1052 Q1243 895 1035 617 L1035 589 Q1143 457 1309 333 Q1443 215 1697 172 Q1836 144 1981 97 L1981 68 Q1981 6 1413 -93 Q1187 98 1006 333 Q908 463 902 484 L873 484 Q582 176 400 134 Q268 108 268 11 L249 2 L230 2 Q161 2 117 153 Q117 167 145 305 L135 352 L126 352 Q43 248 -82 248 L-82 257 Q-82 333 117 607 Q277 906 277 948 L277 1005 Q346 1005 448 929 L448 920 Q448 900 297 550 Q306 220 306 125 Q297 125 297 115 L306 115 Q555 304 770 532 Q770 570 798 570 L798 579 Q772 650 495 721 L495 749 L665 787 Q759 766 883 683 L893 683 Q1176 962 1176 1128 Z" /><glyph glyph-name="uni4F53" unicode="&#x4f53;" d="M983 1397 L1012 1397 Q1146 1397 1163 1302 Q1163 1200 1135 971 L1173 971 Q1278 971 1371 1037 Q1520 1037 1627 895 L1608 858 Q1479 867 1428 867 Q1348 867 1201 839 Q1579 375 1769 375 Q1929 292 1929 186 L1920 186 Q1712 262 1684 262 Q1598 233 1570 233 L1191 621 L1191 441 Q1230 386 1447 318 L1447 233 L1390 233 Q1191 228 1191 176 L1210 -117 Q1196 -161 1144 -202 Q1031 -202 1031 -98 L1031 34 L1040 91 Q1031 107 1031 139 L1031 157 L936 157 Q899 157 841 214 L823 214 Q649 101 577 101 Q522 101 492 167 L492 205 Q626 205 880 631 Q917 718 917 726 L908 726 Q745 678 700 678 Q548 710 548 801 Q562 839 577 839 Q674 829 690 829 Q983 885 983 1037 Q993 1230 1002 1236 Q993 1245 983 1397 ZM463 1151 L482 1151 Q529 1021 529 990 L529 980 Q274 651 274 583 L350 527 L387 527 L416 546 L435 546 Q340 222 340 -51 L302 -51 Q217 -38 217 34 L217 73 Q217 148 264 413 Q245 500 245 517 L236 517 Q179 451 56 242 L37 242 Q-29 242 -29 328 L-29 347 Q-29 442 359 1094 Q367 1151 463 1151 ZM1040 564 Q1040 530 908 299 L1021 299 Q1035 299 1050 328 L1050 432 Q1050 466 1059 517 Q1050 533 1050 564 L1040 564 Z" /><glyph glyph-name="uni5173" unicode="&#x5173;" d="M1086 954 L1135 954 Q1232 954 1232 859 L1232 835 Q1232 785 1013 740 L989 752 Q842 692 831 692 Q843 660 843 617 L843 534 L855 534 Q1059 605 1183 665 L1220 665 Q1232 665 1280 581 L1280 558 Q1280 517 1049 486 Q1049 474 1013 462 L989 474 L916 462 L916 474 L831 450 L843 427 L843 367 Q894 367 1320 2 Q1405 -58 1754 -193 L1779 -229 L1779 -253 L1584 -253 Q1572 -253 1572 -241 L1548 -253 L1487 -253 Q1475 -253 1475 -241 Q1413 -264 1390 -264 Q1171 -148 1013 153 L818 319 L779 98 Q660 -121 527 -121 Q527 -143 296 -217 Q296 -205 284 -205 Q284 -229 259 -229 L235 -229 L235 -193 Q358 -175 539 -14 Q668 152 709 367 L685 367 Q652 367 515 284 L502 284 Q372 319 344 379 Q344 403 575 438 Q746 498 746 522 Q765 618 767.5 629.5 Q770 641 770 680 L685 680 Q478 752 478 776 L478 788 Q482 811 502 811 Q515 811 515 800 L1086 954 ZM987 1464 Q1192 1360 1192 1222 Q951 962 831 917 Q831 926 821 926 Q1016 1141 1016 1258 L1016 1303 Q968 1420 968 1446 Q971 1464 987 1464 ZM568 1366 Q597 1360 597 1294 L597 1249 L607 1249 L685 1303 L704 1303 Q724 1300 724 1285 L626 1043 L607 1034 L577 1034 Q460 1128 460 1177 L460 1249 Q503 1331 568 1366 Z" /><glyph glyph-name="uni5177" unicode="&#x5177;" d="M1107 1369 L1145 1369 Q1372 1369 1372 991 Q1372 708 1353 508 Q1372 469 1372 451 L1533 451 Q1656 451 1693 394 L1693 385 Q1588 357 1343 309 Q1325 278 1325 253 L1325 177 Q1423 177 1590 -69 L1590 -97 L1542 -107 Q1211 83 918 83 L918 73 Q754 -173 634 -173 Q492 -155 492 -97 Q551 -33 729 35 Q832 187 832 215 L823 215 Q587 161 256 35 L208 120 Q249 234 322 234 Q322 199 379 177 Q495 196 605 272 Q520 385 520 537 Q539 654 539 726 Q539 795 520 849 Q539 890 539 1000 L539 1047 L549 1047 Q680 955 747 944 Q934 1047 1040 1047 L1107 1047 Q1163 1042 1163 1019 Q1163 997 918 887 Q885 839 814 839 L795 839 L795 792 Q908 821 1003 821 L1031 821 L1145 811 L1145 773 Q1145 751 804 659 L747 697 L738 697 L738 546 L1220 679 Q1220 1237 1154 1237 Q1120 1237 785 1066 Q700 1066 653 1132 L653 1142 Q934 1369 1107 1369 ZM1012 527 L1012 499 Q1060 499 1126 394 Q1230 404 1230 423 Q1220 517 1220 565 L1145 565 Q1109 565 1012 527 ZM719 348 Q733 309 747 309 L757 309 Q894 309 965 414 Q955 451 955 480 L889 480 Q809 480 719 348 ZM1031 206 L1031 186 Q1031 163 1126 158 Q1220 171 1220 243 L1220 291 L1154 291 Q1031 291 1031 206 Z" /><glyph glyph-name="uni5206" unicode="&#x5206;" d="M724 1378 L790 1378 Q873 1378 913 1246 L913 1104 Q815 1016 572 754 Q554 754 279 517 Q196 470 137 451 Q118 483 118 508 Q118 617 449 915 L676 1218 L705 1265 L705 1360 Q708 1378 724 1378 ZM780 830 Q941 789 941 688 L941 594 L799 414 Q1007 414 1007 224 Q1055 183 1055 121 Q1055 -36 865 -183 Q618 -183 553 -78 L553 -3 Q604 -22 657 -22 Q790 107 790 224 L762 272 Q682 257 477 64 Q352 7 326 7 Q232 24 232 130 L232 149 Q232 217 459 375 Q567 512 733 782 L780 830 ZM1329 603 L1414 603 Q1629 603 1783 404 L1783 375 Q1724 375 1651 281 Q1570 272 1518 272 L1395 272 L1395 300 Q1452 429 1452 451 L1452 489 Q1310 531 1310 565 L1310 583 Q1313 603 1329 603 Z" /><glyph glyph-name="uni5B5F" unicode="&#x5b5f;" d="M1140 1459 Q1291 1403 1291 1299 Q986 1043 951 1043 L951 1024 Q1055 872 1206 872 Q1244 831 1244 826 L1244 787 L1187 797 L1168 787 Q1150 797 1140 797 Q1123 749 847 712 Q723 589 638 589 Q563 685 563 721 L563 759 Q913 786 913 863 L913 872 Q837 960 837 1034 Q1017 1196 1017 1308 L1017 1317 L1007 1317 Q943 1317 658 1005 L638 1005 Q546 1005 487 1279 L582 1365 L610 1365 Q632 1251 676 1251 Q1059 1459 1140 1459 ZM1339 504 Q1504 504 1537 353 Q1455 215 1244 -26 L1244 -45 Q1406 -54 1442 -64 L1442 -35 L1519 -35 Q1755 -55 1755 -168 Q1764 -168 1764 -206 Q1764 -225 1745 -225 Q1370 -168 998 -140 L298 -263 Q137 -238 137 -149 L156 -140 L194 -140 Q241 -140 241 -168 Q576 -120 695 -74 L695 -64 Q517 163 506 248 Q544 343 544 362 L563 362 Q660 283 818 -74 L866 -64 L866 -45 Q866 -7 837 116 L837 258 L809 258 Q695 258 695 333 Q707 333 1339 504 ZM1112 353 L1112 343 Q1216 244 1216 163 Q1216 106 1046 -45 L1083 -45 Q1211 -45 1339 343 Q1348 359 1348 381 Q1169 353 1112 353 ZM979 49 L998 49 Q1092 134 1092 248 L1092 286 L1046 286 Q1003 286 979 49 ZM884 248 Q903 163 932 163 L941 163 Q954 164 998 276 L989 276 L884 248 ZM932 978 Q989 950 1059 876 L1059 840 Q1059 829 1064 820 Q1059 811 1059 800 L1064 789 Q1064 784 1059 784 L1064 764 Q1059 671 1059 647 L1054 647 L1059 636 L1059 626 Q1059 615 1054 606 L1059 596 Q1053 512 993 407 L942 407 Q827 471 718 580 L718 591 L728 596 Q854 519 927 519 L932 519 Q952 592 962 682 L957 693 Q957 698 962 698 L957 708 L957 749 Q957 881 916 958 Q924 978 932 978 Z" /><glyph glyph-name="uni5DE5" unicode="&#x5de5;" d="M1168 1118 Q1339 1078 1339 1043 L1339 976 Q1207 936 1083 910 Q1015 919 1007 919 L951 910 L951 882 Q1030 882 1131 740 L1131 683 Q1116 579 1083 579 Q1092 551 1102 551 Q1074 521 1074 418 Q1316 456 1509 456 L1537 456 Q1764 408 1764 305 Q1691 266 1661 257 Q1505 305 1396 305 Q1102 305 269 78 Q141 135 137 163 L137 220 Q903 358 903 456 L913 551 L913 711 Q887 853 856 853 Q798 853 496 683 L487 683 Q402 698 402 835 Q453 883 506 967 L544 967 Q572 929 591 929 Q989 1118 1168 1118 Z" /><glyph glyph-name="uni5F52" unicode="&#x5f52;" d="M491 1408 L548 1408 Q747 1408 747 963 L747 765 Q747 57 312 -210 L255 -210 L255 -201 Q586 304 586 717 L586 1124 Q586 1286 491 1380 L491 1408 ZM208 1096 L236 1096 Q397 1096 397 802 L397 575 Q397 451 264 367 L132 395 Q132 427 246 651 Q274 750 274 850 L274 878 Q274 981 208 1067 L208 1096 ZM1580 1096 Q1769 998 1769 897 Q1646 554 1646 518 L1646 500 L1702 424 L1702 395 Q1702 342 1012 292 L936 292 Q889 292 870 339 L870 415 L1466 500 Q1466 581 1485 632 Q1231 613 964 603 L936 651 L936 680 Q1097 736 1514 793 L1542 963 L1523 963 Q1265 878 1012 878 L908 878 Q889 878 889 897 L889 954 Q1402 1030 1580 1096 Z" /><glyph glyph-name="uni6211" unicode="&#x6211;" d="M775 1591 Q995 1591 1021 1393 L1135 967 L1172 949 Q1241 958 1258 967 Q1340 939 1380 939 L1380 864 L1305 864 Q1248 857 1248 835 L1248 825 Q1248 798 1362 560 L1409 560 L1418 655 Q1409 704 1409 712 L1418 712 Q1542 655 1542 560 Q1531 493 1437 362 Q1507 188 1674 -64 L1693 -64 Q1704 21 1722 21 L1711 40 L1711 69 L1740 69 Q1825 -170 1825 -358 L1825 -386 L1759 -395 L1731 -395 Q1680 -373 1494 31 Q1477 46 1371 248 L1352 258 Q1113 49 1040 49 L1021 49 L1021 69 Q1243 303 1305 409 Q1305 521 1192 645 Q985 551 879 428 Q832 428 804 49 Q767 -7 756 -7 L737 -7 Q637 -7 472 126 Q271 21 255 21 L255 31 Q255 56 198 126 L198 163 Q198 188 378 239 Q451 312 690 437 L690 608 Q649 608 255 409 Q246 409 246 419 L179 409 L151 409 Q106 439 75 504 L75 513 Q127 599 151 608 Q223 579 302 560 Q653 740 680 740 Q680 892 614 920 Q249 750 235 750 L217 750 L217 778 Q374 968 529 1043 Q599 1127 822 1308 Q828 1365 851 1365 L898 1365 L898 1374 Q897 1409 841 1497 L794 1488 L785 1488 Q765 1488 765 1507 L775 1591 ZM1172 1337 Q1295 1337 1418 1242 L1418 1157 L1229 1157 Q1172 1284 1172 1337 ZM737 986 L737 977 Q765 930 813 930 Q804 911 804 901 Q826 835 832 835 Q1007 887 1050 930 Q973 1052 973 1118 L973 1157 L964 1157 Q873 1125 737 986 ZM841 665 L841 560 Q1138 722 1144 740 L1144 759 Q1144 794 1116 816 Q850 708 841 665 ZM539 182 L539 172 Q541 154 557 154 L624 154 Q680 154 680 211 L680 267 Q539 222 539 182 Z" /><glyph glyph-name="uni6280" unicode="&#x6280;" d="M1176 1397 Q1235 1397 1235 1357 Q1235 1260 1186 1011 L1245 1011 Q1266 1011 1266 1040 Q1255 1164 1255 1169 L1275 1169 Q1352 1169 1462 1040 L1462 1031 Q1462 999 1156 862 Q1137 767 1137 665 L1146 665 L1215 685 L1225 685 Q1393 629 1393 527 L1393 456 Q1393 403 1324 179 Q1933 -96 2057 -127 L2057 -158 Q2017 -158 1889 -187 Q1620 -187 1324 41 Q1255 71 1196 71 Q1043 -76 898 -88 L879 -88 Q750 -25 750 12 L750 31 Q782 12 809 12 L860 12 Q970 12 1087 140 L1087 160 Q1087 214 819 249 L819 298 L860 298 Q1002 298 1186 268 Q1266 410 1266 507 L1266 585 Q1266 601 1206 635 Q1139 635 988 447 L958 447 Q1018 764 1027 784 L958 793 L909 784 Q909 805 849 882 L849 892 Q853 913 898 932 L998 913 Q1053 968 1117 1377 Q1150 1397 1176 1397 ZM503 1328 Q641 1281 641 1229 Q621 1088 621 922 L621 902 Q671 895 671 873 L671 862 Q601 811 601 674 Q592 588 592 576 L601 576 L879 734 L879 724 Q592 507 592 387 L592 110 Q592 -18 612 -68 Q592 -100 592 -117 Q504 -98 305 110 L315 110 Q449 12 523 12 L523 160 Q523 229 512 378 L494 378 Q475 378 226 120 Q216 120 126 71 Q97 93 97 190 Q182 190 512 516 L512 754 Q423 727 226 625 L177 625 Q137 637 137 704 Q240 704 523 902 L542 902 L542 1210 Q542 1228 494 1328 L503 1328 Z" /><glyph glyph-name="uni63A5" unicode="&#x63a5;" d="M947 1511 L998 1511 Q1164 1511 1284 1400 L1284 1348 Q1284 1261 1039 1184 L987 1184 L987 1194 Q1039 1284 1039 1379 Q926 1426 926 1450 L926 1492 Q930 1511 947 1511 ZM476 1450 L497 1450 Q578 1450 691 1297 Q661 1101 661 969 L701 969 Q773 1041 1388 1205 Q1388 1214 1398 1214 L1561 1184 L1561 1102 Q1540 1102 1407 1051 Q1448 926 1448 897 Q1356 818 1356 744 L1366 744 Q1441 755 1459 764 Q1602 726 1602 703 L1602 663 Q1477 663 1388 549 Q1510 549 1510 386 L1531 395 L1632 395 Q1780 395 1838 314 L1838 252 L1786 243 Q1719 243 1540 284 Q1456 284 1428 7 Q1632 -88 1632 -178 L1632 -209 Q1632 -225 1571 -250 Q1314 -136 1284 -136 Q1148 -252 1039 -259 L978 -259 Q963 -259 947 -229 L947 -198 L967 -198 Q1096 -198 1193 -44 Q1018 27 987 27 L987 17 Q967 -25 967 -55 L886 -55 Q834 -28 834 27 L845 129 L834 129 Q633 109 609 89 Q620 69 620 58 Q620 -25 629 -239 Q591 -329 568 -331 L558 -331 Q418 -192 292 -117 Q267 -136 251 -136 Q159 -88 159 -25 Q485 539 485 580 L476 580 Q326 539 260 539 Q181 567 97 672 L97 703 Q258 721 497 949 L485 989 Q485 999 497 999 L485 1061 Q485 1221 455 1440 L476 1450 ZM1059 867 L1059 856 L1090 856 Q1090 712 1039 712 L1039 663 Q1092 732 1152 785 Q1234 924 1234 959 L1234 969 L1182 980 Q1059 967 1059 867 ZM639 682 L639 468 Q639 381 629 211 L639 211 Q894 252 967 324 Q1009 361 1009 447 Q882 416 834 416 L824 416 Q691 457 691 498 Q782 562 957 631 Q895 734 895 764 L895 888 L834 888 Q639 705 639 682 ZM1162 334 L1172 334 Q1336 354 1336 395 L1336 406 Q1336 486 1274 519 L1264 519 Q1217 471 1162 334 ZM353 17 Q353 -46 466 -96 L485 -44 Q466 159 466 243 Q419 210 353 17 ZM1049 99 Q1096 99 1274 78 Q1306 153 1326 232 L1306 243 L1274 243 Q1049 243 1049 99 Z" /><glyph glyph-name="uni6587" unicode="&#x6587;" d="M667 1228 L714 1228 Q809 1228 828 1105 Q828 1081 752 887 L771 878 Q1244 1010 1292 1010 Q1443 984 1443 954 L1443 887 L1311 859 Q1220 869 1206 878 Q979 835 979 802 L979 784 Q1074 784 1074 679 Q1017 420 1017 386 Q1698 -6 2020 -21 L2020 -59 L2010 -59 Q1705 -89 1585 -134 Q1360 -57 961 263 L913 263 Q695 -22 573 -59 Q298 -18 298 17 L298 26 L308 26 Q339 7 355 7 Q790 225 790 376 L790 414 Q683 474 497 519 L488 537 L488 556 Q511 556 563 565 Q846 509 875 509 L875 519 Q951 684 951 764 L941 764 Q917 764 894 793 Q717 793 317 452 Q266 452 251 604 Q667 1034 667 1228 Z" /><glyph glyph-name="uni65B0" unicode="&#x65b0;" d="M486 1565 Q614 1565 777 1407 Q810 1362 829 1274 Q909 1274 963 1291 Q996 1272 1059 1256 L1059 1212 Q752 1150 273 1000 L212 1079 Q285 1133 573 1194 Q627 1206 627 1221 L627 1317 Q627 1409 486 1548 L486 1565 ZM1554 1194 L1572 1194 Q1639 1194 1687 1115 L1687 1079 Q1330 1018 1290 1018 Q1439 1194 1554 1194 ZM813 1061 L856 1061 Q906 1061 944 991 L944 947 Q944 922 874 788 L883 788 Q955 782 963 752 L963 734 Q963 693 680 647 Q703 606 733 505 Q971 522 971 540 Q1007 522 1033 522 L1033 496 Q1033 465 839 399 Q768 378 768 364 L768 337 Q963 193 963 116 L963 80 Q963 63 910 54 Q886 54 750 195 L742 195 L742 186 Q733 -105 662 -105 Q512 -70 512 -25 L512 -17 L591 90 L591 266 Q591 278 565 293 Q278 207 140 116 Q91 116 52 249 L78 249 Q102 249 131 231 Q401 343 591 434 L591 443 Q591 511 529 611 Q285 549 220 549 L201 549 Q190 549 175 576 L175 602 Q381 664 406 664 L406 699 Q461 1018 502 1018 Q525 1015 565 956 L565 859 L591 859 L591 814 Q591 765 617 744 Q704 779 795 1035 Q795 1061 813 1061 ZM1776 903 L1944 885 L1944 867 Q1889 808 1608 761 L1591 726 Q1714 668 1714 593 L1714 -326 L1679 -326 Q1554 -216 1554 -193 Q1608 -162 1608 -52 L1608 71 Q1608 657 1519 726 L1484 726 Q1254 726 1254 478 Q1254 357 1192 186 L1148 186 Q1100 186 1033 372 Q1076 372 1122 699 Q1112 798 1112 876 L1122 876 Q1235 779 1316 744 Q1392 788 1776 903 ZM353 169 L387 169 L423 -8 Q379 -113 379 -123 L370 -123 Q291 -123 291 9 Q317 169 353 169 ZM689 361 Q686 361 681 360 Q681 360 681 359 Q681 358 681 357 Q682 358 685 357 Q688 357 689 357 Q689 361 689 361 ZM694 362 Q695 361 695 361 Q695 360 695 358 Q696 358 698 359 Q701 360 703 360 Q703 360 703 361 Q704 362 704 363 Q697 362 694 362 ZM687 369 Q688 368 688 366 Q689 364 689 363 Q690 363 691 363 Q693 363 694 364 Q695 366 695 369 Q694 369 691 369 Q688 369 687 369 ZM688 371 Q688 371 691 371 Q693 371 693 372 Q689 372 688 371 ZM694 377 Q692 377 688 377 L688 374 Q693 375 694 376 Q694 376 694 376 Q694 376 694 376 Q694 376 695 377 Q695 377 694 377 ZM700 380 Q702 380 704 381 Q705 381 706 380 Q707 380 707 379 Q707 379 707 378 Q707 378 707 378 Q707 378 706 378 Q704 378 699 378 Q699 378 697 376 Q696 374 696 373 Q696 373 695 372 Q694 372 693 371 Q695 372 697 372 Q701 372 702 372 Q707 372 709 374 Q713 372 714 372 Q713 371 712 370 Q712 370 710 370 Q708 370 704 370 Q699 370 699 370 Q699 370 699 370 Q699 369 700 369 Q700 369 700 369 Q700 367 698 366 Q698 365 697 365 Q696 364 695 364 Q696 364 698 364 Q700 364 701 364 Q704 365 706 366 Q708 367 709 365 Q709 365 710 364 Q711 363 711 363 Q708 360 703 359 Q703 359 704 358 Q704 357 703 355 Q703 354 703 351 Q704 346 703 345 Q701 344 700 344 Q698 344 697 344 Q697 344 696 345 Q696 346 696 347 Q697 346 698 348 Q699 353 698 357 Q698 357 696 357 Q695 357 695 357 Q695 354 695 348 Q696 342 695 340 Q695 339 694 338 Q693 337 693 337 Q692 337 690 339 Q689 340 689 341 Q689 348 689 356 Q689 356 688 356 Q687 356 687 356 Q687 354 687 350 Q687 347 687 345 Q686 345 684 345 Q683 345 681 346 Q682 348 682 351 Q682 354 681 357 Q681 356 681 355 Q681 354 681 354 Q678 353 675 355 Q676 356 676 360 Q676 363 675 365 Q676 366 678 366 Q679 366 680 365 Q681 365 681 365 Q681 364 681 363 Q686 363 686 363 Q683 365 684 368 Q677 368 674 367 Q673 367 672 368 Q671 369 670 369 Q673 370 679 370 Q684 370 687 371 Q687 372 685 372 Q685 373 684 373 Q683 373 682 373 Q683 374 683 376 Q681 376 679 376 Q679 376 678 375 Q678 375 677 375 Q677 375 676 376 Q675 377 675 377 Q676 378 679 378 Q682 378 683 378 Q683 383 682 385 Q683 385 685 385 Q686 385 687 385 Q688 384 689 384 Q688 383 688 378 Q689 379 692 379 Q694 379 695 379 Q695 379 695 381 Q695 383 695 383 Q695 385 693 386 Q695 386 697 386 Q700 386 701 385 Q701 384 701 382 Q701 382 700 380 ZM648 435 Q647 434 643 433 Q640 433 639 432 Q638 432 638 433 Q637 434 636 435 Q643 435 646 438 Q646 438 646 437 Q647 437 647 437 Q648 436 648 435 ZM664 432 Q663 429 660 426 Q658 424 655 423 Q655 424 655 426 Q655 429 655 430 Q632 427 631 426 Q631 426 631 422 Q631 420 631 418 Q630 418 628 418 Q626 418 625 419 Q626 421 626 424 Q626 428 625 430 Q626 431 628 431 Q629 430 631 429 Q640 430 645 430 Q650 431 651 431 Q654 432 656 433 Q658 434 660 433 Q661 433 662 432 Q663 432 664 432 ZM639 417 Q640 417 641 417 Q643 416 643 417 Q644 417 646 420 Q647 422 648 424 Q643 423 637 421 Q636 421 636 420 Q633 422 632 423 Q636 423 643 425 Q644 425 645 425 Q646 425 646 425 Q648 426 648 427 Q654 427 654 425 Q655 424 651 420 Q649 418 646 416 Q646 416 647 416 Q647 415 647 415 Q647 415 647 414 Q647 411 647 412 Q648 412 651 412 Q654 412 655 413 Q659 413 660 415 Q661 415 663 414 Q664 413 665 412 Q664 412 664 411 Q664 410 663 410 Q662 410 662 410 Q661 410 661 410 Q658 410 654 410 Q649 409 647 409 Q648 400 648 399 Q648 393 645 392 Q644 392 642 392 Q641 392 640 393 Q639 393 639 394 Q639 395 638 395 L640 395 Q642 397 642 401 Q642 402 642 408 Q640 408 638 408 Q635 407 634 407 Q629 406 627 405 Q626 406 624 409 Q629 409 642 411 Q642 411 641 412 Q641 413 641 414 Q640 414 639 413 Q639 413 640 414 Q641 414 641 415 Q641 416 641 416 Q640 416 639 417 ZM655 354 Q653 356 650 364 Q651 362 651 359 Q651 355 651 353 Q651 353 652 353 Q652 354 653 354 Q653 354 653 354 Q655 354 655 354 ZM633 367 Q633 367 632 368 Q632 369 632 368 Q631 358 632 347 Q637 353 639 362 Q640 364 640 366 Q641 368 640 369 Q636 369 633 367 ZM641 369 Q642 369 643 368 Q643 368 644 367 Q644 367 644 367 L644 370 Q644 369 643 369 Q642 369 641 369 ZM627 384 Q630 384 632 383 Q635 381 635 379 Q635 377 634 375 Q634 375 632 372 Q632 372 632 371 Q632 371 632 371 Q632 371 644 371 Q644 373 645 378 Q645 382 644 384 Q644 385 644 385 Q643 386 643 386 Q648 385 651 383 Q650 380 650 372 Q651 372 653 372 Q655 372 656 372 Q660 373 661 374 Q661 374 663 373 Q664 373 664 372 Q664 371 663 370 Q663 370 661 370 Q659 370 656 370 Q652 370 651 370 Q656 357 668 349 Q667 348 665 347 Q662 347 661 346 Q658 348 656 352 Q655 351 654 351 Q651 351 651 351 Q650 350 650 348 Q650 345 650 345 Q650 341 648 340 Q646 339 644 341 Q643 342 642 345 Q642 345 644 345 Q644 346 644 348 Q645 350 645 350 Q643 350 641 349 Q639 350 638 351 Q640 351 645 352 L645 361 Q643 357 639 353 Q637 351 632 346 Q633 344 633 342 Q631 341 629 342 Q628 342 625 344 Q626 344 626 345 Q626 345 626 347 Q627 350 626 356 Q626 364 626 366 Q625 365 623 364 Q621 362 620 361 Q625 368 627 376 Q628 381 628 382 Q628 383 628 383 Q627 384 627 384 ZM684 439 Q686 438 686 437 Q687 437 687 435 Q686 435 682 434 Q679 434 678 433 Q678 434 677 436 Q680 436 681 437 Q684 437 684 439 ZM678 428 Q680 428 681 425 Q681 425 682 423 Q683 422 683 421 Q683 421 682 421 Q682 421 682 421 Q682 421 684 421 Q685 424 686 425 Q686 427 686 429 Q685 429 682 429 Q680 429 678 428 ZM678 396 Q680 396 681 397 Q681 398 681 400 Q681 400 681 403 Q681 405 681 406 Q679 403 676 400 Q674 399 670 396 Q677 403 679 411 Q675 412 672 409 Q670 411 669 412 Q677 413 681 414 Q681 415 681 419 Q677 419 675 417 Q673 418 672 420 Q673 420 676 420 Q678 420 680 420 Q678 422 677 423 Q676 425 677 428 Q675 428 673 427 Q671 429 671 429 Q673 429 680 430 Q681 430 683 431 Q685 431 686 431 Q689 432 690 433 Q692 433 693 432 Q693 431 693 430 Q693 430 692 430 Q692 430 691 430 Q690 430 690 430 Q690 430 690 430 Q690 429 690 429 Q690 429 690 429 Q690 427 689 425 Q689 424 688 421 Q690 422 692 423 Q692 423 693 422 Q694 422 695 422 Q695 421 694 421 Q694 420 694 420 Q694 420 694 420 Q694 420 686 420 Q686 419 687 419 Q687 417 687 414 Q691 415 693 416 Q693 416 694 415 Q695 415 695 414 Q695 422 695 430 Q695 434 695 435 Q697 435 698 434 Q699 434 699 433 Q700 432 700 432 Q705 434 707 437 Q708 436 709 436 Q711 435 711 435 Q710 433 706 432 Q705 431 700 431 L700 422 Q701 422 703 422 Q706 422 707 422 Q711 423 712 425 Q714 423 715 423 Q715 422 715 422 Q715 422 715 421 Q714 421 714 421 Q712 421 707 421 Q708 420 710 419 Q709 415 710 405 Q710 399 710 398 Q709 394 707 393 Q706 394 705 395 Q704 396 705 398 Q705 401 704 409 Q704 417 704 420 Q702 420 700 419 Q700 410 700 407 Q699 401 698 397 Q697 396 696 396 Q695 395 694 395 Q693 395 693 397 Q693 399 692 399 Q694 401 695 405 Q695 407 695 409 Q695 413 695 413 Q694 413 691 413 Q689 413 687 412 Q687 411 688 411 Q688 411 689 410 Q689 410 690 410 Q692 409 693 406 Q694 404 692 401 Q691 401 690 402 Q690 403 690 404 Q689 405 689 406 Q688 408 687 410 Q687 410 687 410 Q687 410 687 410 Q687 409 687 407 Q687 405 687 404 Q688 402 687 399 Q687 395 686 394 Q686 393 684 393 Q682 393 681 393 Q680 394 679 395 Q678 396 678 396 Z" /><glyph glyph-name="uni6709" unicode="&#x6709;" d="M676 1460 L1121 1460 Q1198 1425 1234 1309 L1253 1309 Q1390 1356 1423 1356 Q1520 1307 1556 1232 L1556 1223 Q1499 1195 1187 1129 Q996 1006 960 1006 L950 1006 L931 1015 Q673 548 477 306 Q334 211 298 211 L278 211 L184 220 L184 249 Q661 724 723 873 L723 911 Q714 901 609 892 Q517 892 440 958 L440 978 Q440 993 751 1100 Q998 1193 998 1318 L969 1318 L828 1289 Q727 1338 676 1460 ZM1338 1006 Q1442 1006 1442 835 Q1442 800 1423 703 Q1452 219 1452 -262 L1452 -357 Q1401 -432 1291 -432 L922 -139 L903 -139 Q903 -224 828 -224 Q742 -208 742 -139 L742 -45 Q742 649 874 854 L913 873 L913 854 Q913 811 903 637 Q931 627 931 618 Q989 637 1102 637 Q1281 577 1281 533 Q1281 486 1093 409 Q1073 372 1073 306 Q1157 286 1319 229 Q1319 240 1329 240 Q1310 386 1310 523 L1310 807 Q1310 826 1291 826 L1281 826 Q1190 750 1149 750 L979 750 L979 779 Q1229 1006 1338 1006 ZM884 362 L884 334 L903 268 L922 268 Q1102 430 1102 505 Q1101 517 1054 542 L969 542 Q884 542 884 362 ZM960 173 L903 173 Q894 124 884 -16 Q1178 -272 1310 -272 Q1329 -237 1329 -196 L1329 -16 Q1329 154 1187 154 Q1093 178 1093 192 Q1021 173 960 173 Z" /><glyph glyph-name="uni672F" unicode="&#x672f;" d="M865 1592 Q969 1569 969 1507 Q941 1085 941 1043 L1045 1043 Q1140 1030 1140 958 L1140 948 Q1041 948 960 826 Q950 761 950 721 L950 598 Q1045 498 1518 333 Q1669 235 1698 191 Q1698 178 1670 163 L1651 163 Q1439 216 950 419 Q922 330 922 257 L922 -74 Q922 -233 941 -367 L893 -396 L884 -396 Q629 -221 629 -111 L629 -92 L638 -92 Q780 -216 827 -216 Q818 -72 809 371 L799 371 Q357 -83 279 -83 L279 -74 Q709 501 790 712 Q568 570 449 570 L430 570 Q283 570 203 674 L203 702 L288 702 Q438 707 837 1034 L837 1071 Q837 1192 856 1317 Q837 1365 837 1544 Q844 1544 865 1592 ZM1168 1393 Q1358 1393 1452 1270 L1452 1166 L1414 1166 Q1285 1192 1168 1345 L1168 1393 Z" /><glyph glyph-name="uni6863" unicode="&#x6863;" d="M557 1422 Q567 1393 614 1393 Q595 1093 586 1063 L633 1063 L746 1053 L746 1015 L567 864 L567 778 Q666 778 718 608 Q696 552 680 552 L633 552 Q599 552 567 684 L557 684 L510 -205 L482 -225 L463 -225 Q449 -225 368 -111 Q415 322 415 419 Q208 233 104 211 Q388 577 415 750 Q271 684 170 608 L160 608 Q56 630 56 703 Q179 741 482 1006 L482 1015 Q491 1422 557 1422 ZM1163 1299 Q1251 1299 1361 1100 L1361 1072 Q1333 986 1333 958 Q1464 1053 1523 1053 Q1596 1053 1674 949 L1674 911 Q1634 853 1390 732 Q1390 727 1333 665 Q1561 721 1589 721 Q1844 593 1844 438 L1844 428 Q1844 401 1664 97 L1664 88 Q1755 88 1769 -35 Q1759 -53 1759 -63 Q1526 -6 1456 -6 L1390 -6 Q1021 -45 1021 -83 L983 -83 Q908 -83 888 22 L888 40 Q1504 97 1504 145 Q1504 200 1551 305 L1541 305 Q1158 202 1097 202 L1078 202 Q986 202 936 287 L936 315 Q939 334 955 334 Q1004 325 1011 325 Q1313 410 1447 410 L1598 410 Q1617 539 1617 580 Q1604 627 1551 627 Q1153 476 983 476 Q908 504 888 504 L888 542 Q888 564 1191 627 L1191 646 Q1116 687 908 760 Q851 820 851 940 L851 958 Q902 958 1050 845 L1116 845 Q1128 845 1163 892 L1163 1034 Q1087 1244 1087 1271 L1163 1299 ZM1276 807 L1276 741 Q1325 777 1456 940 L1447 940 Q1276 914 1276 807 Z" /><glyph glyph-name="uni6C49" unicode="&#x6c49;" d="M288 1308 Q406 1308 600 1090 L600 1062 Q600 975 477 958 Q477 1040 297 1223 L288 1270 L288 1308 ZM1300 1090 Q1414 1047 1414 930 Q1387 855 1158 542 L1158 514 Q1158 378 1489 229 Q1787 122 1896 12 L1896 3 L1849 12 L1613 12 Q1379 12 1130 268 Q1073 409 1055 409 L1045 409 Q682 87 515 78 L487 78 L487 88 Q487 172 628 258 Q843 509 913 514 L913 551 Q799 686 648 769 Q562 785 562 854 L562 864 Q716 864 1026 646 L1035 646 Q1215 808 1215 873 L1196 882 Q1186 882 1092 864 L1055 864 Q995 864 941 949 L941 977 Q1039 977 1300 1090 ZM61 788 Q297 687 297 589 L297 580 Q297 501 231 448 L212 448 L212 514 Q212 605 70 693 Q70 702 4 750 Q13 788 61 788 ZM477 542 L487 542 Q487 519 354 144 Q323 -85 307 -111 L269 -111 Q191 -42 146 31 Q149 128 212 296 L269 249 L278 249 Q435 509 477 542 Z" /><glyph glyph-name="uni7684" unicode="&#x7684;" d="M1196 1356 Q1309 1309 1309 1242 Q1309 1110 1130 798 L1149 798 L1508 939 L1537 939 Q1697 939 1745 712 L1745 608 Q1743 420 1546 -73 Q1480 -123 1480 -159 L1413 -159 Q1357 -159 1205 60 Q1182 60 1149 173 Q1151 192 1167 192 L1177 192 Q1332 88 1404 88 L1423 88 Q1468 133 1555 485 Q1593 649 1593 788 Q1593 795 1583 844 L1205 722 L1073 750 Q1073 708 865 504 Q799 382 770 40 L751 31 L732 31 Q656 70 656 126 L666 220 L656 220 Q535 106 458 106 L411 106 L458 182 L458 192 Q405 192 315 286 Q326 443 326 523 L326 693 Q241 646 193 646 L155 646 Q155 669 571 1176 L619 1299 Q609 1317 609 1327 L647 1327 Q697 1327 751 1242 L751 1185 Q751 1091 685 1091 L685 1034 L713 1034 Q802 1034 827 911 L827 854 Q827 843 808 750 L808 665 L817 599 L808 599 Q817 583 817 551 L836 551 Q1083 994 1177 1346 L1196 1356 ZM411 759 Q420 759 486 674 Q552 693 600 693 L666 693 Q685 693 685 712 L685 911 Q685 926 647 949 Q573 949 411 759 ZM495 447 Q495 426 505 409 Q467 345 467 220 L486 211 Q685 380 685 447 L685 542 Q590 599 580 599 Q495 557 495 447 ZM1281 504 L1338 504 Q1389 504 1413 457 L1413 419 Q1265 325 987 325 Q861 357 845 391 L845 428 Q1231 504 1281 504 Z" /><glyph glyph-name="uni7B14" unicode="&#x7b14;" d="M999 1678 L1019 1678 Q1157 1625 1157 1531 L1157 1521 Q1157 1497 1069 1343 L1078 1343 Q1237 1403 1363 1403 Q1403 1387 1403 1373 L1403 1314 L1108 1246 Q1157 1130 1157 1107 L1157 1097 Q1136 1045 980 989 L980 979 Q1055 930 1127 911 L1127 900 Q959 713 833 713 L833 704 Q953 704 970 615 L980 615 L990 664 L1206 605 L1206 576 Q1206 539 961 448 Q901 357 901 291 L901 280 L940 280 Q1023 280 1029 379 L1049 369 L1118 369 Q1325 356 1325 280 Q882 197 882 123 Q839 123 833 -14 Q833 -212 1078 -212 L1098 -212 Q1655 -212 1758 -25 Q1767 44 1787 44 L1797 44 Q1895 -79 1895 -232 Q1662 -311 1532 -311 Q734 -311 734 -25 Q734 57 694 84 Q537 24 370 -5 L320 74 Q320 126 359 143 L370 143 L379 84 L419 84 Q566 103 743 221 Q754 305 754 359 L743 359 Q626 350 626 320 Q609 329 537 340 L379 340 L370 388 L419 388 Q822 498 822 576 Q800 612 783 684 Q558 635 547 635 L547 655 L921 871 L940 960 L871 960 L871 970 Q896 1018 1029 1156 L1029 1186 L1019 1186 Q973 1186 833 1088 Q773 1107 773 1166 L773 1186 Q1010 1418 1010 1540 L1010 1629 L999 1678 ZM379 1491 L419 1491 Q547 1406 547 1334 Q622 1353 685 1353 L694 1353 Q694 1304 595 1186 L595 1147 L705 1235 L723 1235 L723 1225 Q723 1203 606 930 L606 911 L537 911 Q469 953 469 1039 L469 1077 L458 1077 L350 989 L341 989 Q284 989 222 1088 L222 1107 Q242 1184 379 1471 L379 1491 Z" /><glyph glyph-name="uni7FFB" unicode="&#x7ffb;" d="M444 1378 Q596 1335 671 1246 L671 1227 Q661 1199 510 1152 Q510 1116 500 915 Q491 915 491 905 L500 905 Q604 988 604 1095 L586 1142 L614 1161 L689 1161 Q768 1161 784 1057 Q700 956 491 773 L491 763 L500 763 L897 839 Q962 811 983 763 L983 726 Q921 707 897 707 Q897 735 869 735 Q624 735 491 650 L510 612 Q500 555 481 338 L491 338 L755 404 Q926 373 926 281 L926 130 Q926 -103 718 -183 L709 -183 Q640 -183 623 -155 Q365 -183 264 -183 Q193 -183 113 25 Q113 65 93 121 Q25 97 -11 64 L-49 64 L-49 82 Q330 516 330 594 L321 594 Q113 527 -1 527 Q-52 546 -67 583 L-67 603 Q-67 622 -39 622 Q-16 622 37 612 Q367 669 367 811 Q387 856 387 915 Q351 943 330 1104 Q209 1038 150 1038 L122 1038 L122 1067 Q172 1067 367 1284 Q444 1360 444 1378 ZM1843 1275 Q1954 1275 1967 1142 Q1882 981 1882 594 L1882 499 Q1882 376 1900 329 L1882 290 Q1929 194 1929 -12 L1929 -98 Q1928 -111 1882 -135 Q1724 -88 1532 92 Q1635 73 1712 73 L1797 121 Q1778 151 1778 177 L1778 848 Q1778 932 1806 1104 L1797 1104 Q1541 1125 1541 1170 L1541 1189 L1550 1189 Q1648 1189 1806 1275 L1843 1275 ZM1191 1255 L1304 1255 Q1377 1255 1390 1218 Q1370 959 1370 905 Q1409 905 1409 896 L1324 603 L1324 -50 L1295 -50 Q1115 108 1115 167 L1115 177 L1219 177 L1219 243 Q1219 414 1191 414 L1030 205 L964 205 Q945 271 945 319 Q959 319 1002 375 Q547 491 547 546 L547 555 L557 555 Q604 555 604 546 L699 555 L794 555 Q1049 545 1049 451 Q1081 451 1087 859 Q1074 859 1049 905 L1049 934 L1077 934 L1125 905 L1172 925 Q1200 879 1200 820 L1238 820 L1238 830 Q1238 971 1257 1085 Q1098 1133 1059 1133 L1059 1152 Q1191 1208 1191 1255 ZM103 991 L113 991 Q216 887 245 887 L302 896 Q236 776 236 763 L188 763 Q103 827 103 953 L103 991 ZM1513 887 L1712 859 L1712 773 Q1712 753 1503 414 L1503 357 Q1601 357 1626 205 L1617 205 Q1437 257 1437 385 Q1560 617 1560 830 Q1513 842 1513 859 L1513 887 ZM1200 763 L1153 555 L1153 537 L1172 537 Q1219 560 1219 612 L1219 631 L1210 679 Q1238 679 1238 697 L1238 763 L1200 763 ZM264 281 L264 272 L339 272 Q391 272 424 329 Q396 395 396 423 L387 423 Q327 364 264 281 ZM538 243 Q538 202 614 130 L614 92 L538 7 L538 -31 L699 -31 Q727 -31 755 196 L755 281 L737 281 Q538 273 538 243 ZM197 215 Q287 -62 349 -98 L387 -98 Q401 -98 424 -59 L424 -3 Q292 16 292 35 L292 64 Q424 64 424 149 Q355 175 254 253 Q197 231 197 215 Z" /><glyph glyph-name="uni8482" unicode="&#x8482;" d="M973 1705 L983 1705 Q1163 1646 1163 1592 Q1143 1450 1143 1421 Q1257 1393 1257 1346 Q1251 1321 1210 1298 L1153 1298 Q1118 1327 1087 1327 Q1063 1327 945 1156 Q958 1117 992 1099 L1229 1128 Q1305 1093 1333 1033 L1333 1015 Q1333 986 1295 986 Q1179 1015 1134 1015 L1021 1015 L1021 1005 Q1086 1005 1143 911 L1143 854 Q941 716 869 703 L869 693 L878 693 Q1323 759 1475 759 Q1637 759 1721 551 L1721 532 L1702 532 Q1603 532 1399 523 L1390 560 Q1465 637 1465 683 Q1455 683 1437 693 L955 617 Q955 600 1001 504 Q1043 523 1134 523 Q1230 523 1305 333 Q1276 2 1200 2 Q1181 2 1030 78 L1030 68 Q1004 -509 945 -509 Q888 -417 850 220 L850 286 L746 286 Q746 239 727 239 Q746 207 746 182 L746 40 L737 -7 L680 -7 Q567 63 567 144 Q567 475 652 475 Q708 459 708 400 L765 400 Q860 413 860 485 Q860 553 812 560 Q639 532 472 485 Q368 517 368 608 L368 617 L415 626 Q462 608 462 598 Q647 626 708 655 Q645 785 604 920 Q410 863 349 863 L320 911 L320 939 Q320 1012 368 1033 Q405 1033 462 986 Q515 1005 756 1053 L756 1062 Q696 1156 690 1156 L699 1204 Q680 1264 680 1279 Q648 1279 604 1128 L548 1128 Q460 1128 387 1232 L387 1318 L443 1318 L510 1270 L519 1270 Q557 1289 642 1375 L642 1384 L538 1563 L585 1563 Q793 1563 793 1298 Q793 1246 803 1195 L860 1195 Q907 1233 907 1308 L907 1327 Q860 1327 860 1384 L860 1393 L878 1393 Q1001 1393 1001 1497 L1001 1563 Q1001 1620 973 1705 ZM718 920 Q718 854 784 788 Q809 835 860 835 L869 835 L869 806 Q1001 913 1001 1015 L992 1015 Q718 965 718 920 ZM226 665 Q377 665 377 475 Q377 436 359 381 Q368 315 377 315 Q354 144 311 144 Q179 200 179 258 Q188 417 226 665 ZM1021 333 L1021 220 Q1030 192 1077 192 L1115 192 L1115 409 L1106 409 Q1083 409 1021 333 Z" /><glyph glyph-name="uni8BB0" unicode="&#x8bb0;" d="M1229 1208 Q1343 1173 1343 1066 L1343 1048 Q1258 917 1258 896 L1267 896 Q1286 896 1286 849 Q1220 730 984 631 Q896 425 860 262 Q967 215 1069 215 L1201 224 L1249 215 Q1702 288 1702 328 L1702 536 Q1747 500 1910 253 L1910 234 Q1910 145 1598 91 Q1286 45 1172 35 Q891 35 737 196 Q690 236 690 356 L690 376 Q690 566 917 792 Q999 792 1135 1000 L1135 1019 L927 896 Q765 985 765 1104 L765 1114 Q768 1161 785 1161 Q835 1161 945 1151 L1229 1208 ZM435 1076 Q567 1051 567 962 L567 953 Q336 849 255 849 Q189 871 189 962 L435 1076 ZM416 792 Q520 792 520 707 L520 697 Q397 512 397 367 Q626 575 662 575 L662 555 Q588 396 321 35 Q321 -12 302 -12 L283 -12 Q153 -12 94 168 L151 168 Q283 168 283 527 L283 575 Q273 575 255 584 Q158 490 75 480 Q12 480 -10 575 L-10 593 Q-9 614 416 792 Z" /><glyph glyph-name="uni8BD1" unicode="&#x8bd1;" d="M1409 1507 Q1425 1497 1447 1497 L1447 1487 Q1447 1346 1239 1090 L1239 1081 Q1623 805 1920 703 L1929 683 L1929 674 Q1929 655 1911 655 L1579 655 Q1504 655 1248 920 Q1137 986 1106 986 L1078 948 Q1210 910 1210 759 L1267 759 Q1352 759 1352 712 Q1230 671 1230 646 L1230 523 Q1250 523 1333 532 Q1407 532 1494 456 L1475 409 Q1457 419 1447 419 Q1399 419 1305 428 Q1219 428 1219 343 Q1210 160 1210 21 L1210 -35 Q1210 -45 1201 -45 Q1210 -111 1219 -111 L1182 -310 Q1116 -295 1116 182 L1116 333 Q1097 371 1087 371 Q839 296 803 296 Q766 305 766 353 Q1116 410 1116 561 L1116 617 Q936 551 889 551 Q889 556 851 598 L851 646 Q893 617 917 617 Q1098 699 1116 740 L1116 749 Q1116 885 1031 920 Q854 778 709 778 Q671 793 671 806 Q671 826 813 844 Q933 901 1021 1024 L1021 1052 Q1016 1071 737 1251 L737 1289 Q803 1289 1116 1137 Q1219 1289 1258 1289 L1258 1298 L1219 1298 Q1165 1298 1068 1289 Q1031 1298 1031 1345 Q1138 1379 1381 1507 L1409 1507 ZM463 1317 Q605 1317 605 1147 Q605 1054 302 911 Q453 1144 463 1204 Q463 1214 444 1308 L463 1317 ZM406 816 Q545 755 577 703 Q520 625 520 390 L529 390 L832 664 L832 646 Q480 209 397 49 Q348 69 321 134 Q406 229 406 561 Q406 573 387 664 Q195 561 94 561 Q52 561 -29 589 L-29 617 Q215 666 340 778 Q355 816 406 816 Z" /><glyph glyph-name="uni8BFB" unicode="&#x8bfb;" d="M1011 1464 L1031 1464 Q1185 1464 1210 1276 L1210 1162 Q1330 1200 1390 1200 L1418 1200 L1418 1153 Q1418 1128 1182 1048 Q1182 1024 1144 935 L1153 935 Q1345 1011 1418 1011 Q1570 973 1570 859 Q1445 758 1230 651 Q1201 518 1191 367 L1201 367 Q1505 462 1570 462 L1655 462 Q1703 424 1703 376 L1703 367 Q1685 367 1532 376 Q1471 373 1248 282 L1248 273 Q1539 -79 1778 -134 Q1929 -239 1929 -248 L1929 -257 Q1801 -267 1768 -267 Q1487 -267 1276 111 L1163 225 Q967 -229 680 -229 L661 -229 L661 -210 Q917 -46 917 -30 Q983 36 1050 168 L1040 168 Q816 83 785 83 L775 83 Q697 83 633 197 Q1125 291 1125 433 Q1135 523 1135 604 L1135 632 L1106 632 Q1135 667 1135 698 Q1097 698 1078 736 L1078 783 L1230 736 L1361 906 L1352 906 Q879 746 690 698 L690 717 Q693 744 1078 916 L1087 982 L1087 991 Q1087 1011 1059 1011 Q749 888 728 888 Q677 888 661 925 L661 944 Q759 944 1078 1096 L1078 1171 Q1078 1417 1011 1417 L1011 1464 ZM444 1228 L482 1228 Q605 1228 605 1057 Q605 975 397 878 Q397 869 312 821 L302 821 L302 831 Q463 1070 463 1114 L463 1134 Q463 1142 444 1209 L444 1228 ZM378 727 L397 727 Q480 714 577 623 Q520 539 520 301 Q536 301 718 481 L709 499 Q766 518 823 575 L832 575 L832 566 L803 518 Q955 490 955 443 Q933 351 889 320 L841 320 L841 396 Q841 407 737 452 Q546 194 397 -30 L387 -30 Q338 0 321 55 Q406 139 406 471 Q397 575 378 575 Q200 481 132 481 L65 481 Q-29 492 -29 518 L-29 528 Q216 584 350 698 Q350 712 378 727 ZM813 708 Q1040 659 1040 584 Q1040 531 936 518 Q910 582 813 689 L813 708 Z" /><glyph glyph-name="uni8D75" unicode="&#x8d75;" d="M388 1422 L425 1422 Q539 1422 539 1214 Q662 1167 662 1157 L662 1138 Q530 1037 530 949 L530 921 L728 921 L738 883 Q558 716 558 627 Q612 627 662 608 Q662 513 378 249 L378 230 Q470 230 927 40 Q1366 -73 1713 -73 L1750 -73 Q1835 -92 1835 -120 L1835 -130 L1826 -130 Q1720 -130 1268 -225 Q1117 -225 388 126 L237 154 Q188 126 142 126 L132 126 Q81 126 66 163 L66 202 L85 202 Q288 202 388 447 Q304 400 255 400 L237 428 L237 504 Q369 525 369 618 L369 637 Q129 542 66 542 L66 552 Q170 673 359 788 Q388 868 388 901 Q378 930 369 930 Q330 930 132 901 Q75 961 75 987 L85 987 Q407 1083 407 1205 L407 1290 Q407 1351 388 1422 ZM1211 1034 Q1362 940 1362 788 Q1315 695 1315 675 L1315 665 Q1466 547 1466 523 Q1466 513 1410 447 Q1358 457 1145 467 Q954 340 861 296 L861 305 Q1014 506 1041 552 Q930 621 870 693 L870 703 Q994 684 1145 684 Q1201 800 1201 864 Q1183 951 1183 1025 Q1201 1034 1211 1034 Z" /><glyph glyph-name="uni8DA3" unicode="&#x8da3;" d="M348 1445 L377 1445 Q500 1445 500 1227 Q566 1189 623 1189 L623 1152 Q490 1043 490 981 L490 934 L642 934 Q575 1006 575 1019 L595 1029 L642 1029 Q785 1029 1049 1189 L1068 1189 Q1171 1175 1171 1142 L1171 1114 Q1105 1104 1105 1086 Q1141 1019 1153 1019 Q1143 892 1143 830 L1143 679 Q1143 650 1304 641 L1313 641 Q1436 832 1436 925 Q1266 877 1247 877 L1238 896 L1238 915 Q1238 949 1446 1019 Q1524 1019 1550 906 L1550 839 Q1550 788 1418 584 Q1693 512 1843 376 Q1843 354 1891 291 L1891 253 Q1891 234 1872 234 L1853 234 Q1440 489 1342 489 Q1342 454 1200 348 Q1153 319 1096 309 L1096 64 L1068 64 Q979 139 945 196 L963 206 L1011 206 L1011 272 Q1011 291 963 291 L1011 357 L1011 404 Q781 149 755 149 Q642 177 642 253 L642 281 L680 281 L746 272 Q812 324 812 376 Q765 414 737 414 Q746 713 746 859 L746 896 L698 906 Q509 685 509 631 Q522 631 613 613 L613 594 Q613 506 330 234 L330 224 Q406 224 897 26 Q1361 -97 1787 -97 Q1834 -139 1834 -144 Q1565 -173 1257 -249 Q1088 -249 348 111 Q210 139 179 139 Q129 111 65 111 Q26 124 8 158 L8 196 L74 196 Q222 196 339 433 L339 442 Q253 395 216 395 Q198 404 188 404 L188 499 Q330 532 330 641 L320 641 Q112 546 17 546 L8 546 Q132 688 311 793 Q339 854 339 925 L311 944 Q163 915 84 915 Q71 915 27 972 L27 1001 Q358 1088 358 1218 L358 1332 L348 1445 ZM888 991 L888 915 L1002 915 Q1023 915 1030 962 Q1024 1038 1002 1038 Q929 991 888 991 ZM888 802 L888 821 Q860 821 860 697 L860 688 Q971 697 1020 697 L1030 697 L1030 830 L1020 830 Q993 830 888 802 ZM850 537 L850 404 Q882 404 1030 584 L1030 622 Q850 585 850 537 ZM1143 584 Q1105 487 1105 451 L1105 404 L1115 404 Q1161 421 1238 546 L1238 565 L1171 584 L1143 584 Z" /><glyph glyph-name="uni94FE" unicode="&#x94fe;" d="M1059 1346 Q1108 1346 1324 1241 Q1466 1236 1466 1195 L1466 1147 Q1313 1147 1220 967 Q1343 940 1343 911 L1343 825 L1410 835 L1428 835 Q1542 825 1542 740 Q1491 702 1456 702 L1447 702 L1447 740 Q1334 740 1334 655 L1334 560 L1343 560 Q1662 617 1684 617 Q1807 583 1807 503 L1807 494 Q1671 523 1504 523 Q1324 485 1324 400 Q1324 204 1286 50 Q1446 2 2015 -36 L2015 -73 Q1926 -102 1599 -149 Q1515 -149 728 87 Q530 93 530 125 Q530 141 548 182 Q629 163 643 163 Q643 184 672 286 Q575 647 558 655 Q541 655 539 702 L539 721 L567 721 Q649 721 718 589 L690 541 Q747 294 747 248 L747 173 L775 173 Q885 173 1211 68 L1211 78 Q1201 174 1201 229 L1201 428 Q970 343 832 315 L775 409 Q934 428 1211 513 L1211 683 L1201 683 Q999 541 946 541 L841 655 L1145 1024 L1097 1015 L1003 1015 Q947 1015 908 1090 Q1006 1099 1163 1232 L1059 1327 L1059 1346 ZM132 1298 Q359 1200 359 1119 Q347 1005 217 863 L217 854 L236 854 Q268 854 407 948 Q420 958 463 958 Q615 897 615 854 L615 845 Q578 845 416 778 L416 825 L407 825 Q313 806 302 806 L283 806 Q273 806 179 825 L151 788 Q151 742 407 702 Q401 655 350 655 L293 655 Q274 557 274 485 L293 475 Q355 513 416 513 Q510 506 510 475 Q510 445 293 390 Q255 317 255 153 L274 144 L596 400 L605 400 Q555 330 198 -83 L198 -92 Q113 -76 113 2 L113 30 Q198 99 198 258 L198 352 Q78 315 47 315 L-20 324 L-20 333 Q-9 351 198 437 Q217 469 217 494 L217 598 L103 589 L57 589 Q37 589 37 608 Q106 629 189 702 Q175 702 142 759 Q129 759 -66 570 Q-97 551 -114 551 Q198 896 198 1138 Q198 1156 103 1279 Q103 1289 113 1289 Q132 1289 132 1298 ZM548 1119 L558 1119 Q654 1119 709 1015 Q709 963 652 930 L530 1071 L530 1099 Q533 1119 548 1119 ZM1021 702 L1031 702 Q1211 770 1211 797 L1211 882 L1201 930 L1182 930 Q1101 838 1021 702 Z" /><glyph glyph-name="uni96C6" unicode="&#x96c6;" d="M790 1521 L799 1521 Q869 1521 960 1370 Q960 1350 742 1114 Q750 1082 799 1057 L808 1057 Q927 1057 1026 1332 Q998 1332 998 1351 Q998 1370 1026 1370 Q1225 1370 1225 1247 L1225 1237 Q1225 1180 1158 1180 L1158 1124 L1206 1133 L1320 1133 Q1395 1133 1443 1057 Q1149 1020 1149 982 L1300 878 L1300 869 Q1158 854 1158 764 L1158 746 Q1176 718 1329 670 L1329 641 L1272 641 Q1130 625 1130 527 L1130 481 Q1391 449 1423 386 L1423 367 Q1395 367 1395 348 Q1286 367 1244 367 Q979 360 979 319 Q1060 225 1149 225 L1594 225 Q1837 225 1906 121 L1906 83 L1859 74 Q1463 140 1206 140 Q1206 149 1196 149 Q1106 -324 1064 -324 L1055 -324 Q972 -324 827 -106 L837 -106 L950 -182 Q998 -136 998 -78 L998 -12 Q998 36 988 131 L970 131 Q648 131 648 83 Q648 52 667 -68 Q600 -208 600 -229 L543 -229 Q526 -229 487 -163 Q487 -116 553 8 L553 64 L543 64 Q393 64 89 -12 Q-5 22 -5 45 L-5 83 L4 83 Q23 83 23 54 Q509 140 676 197 Q676 241 582 301 Q600 500 600 783 L600 831 L610 944 L591 944 Q350 707 335 707 L317 707 Q269 733 269 792 Q309 918 799 1445 Q790 1497 790 1521 ZM808 878 L808 840 Q811 821 827 821 Q996 887 1016 887 L1016 972 L988 972 Q808 923 808 878 ZM922 736 Q922 755 903 755 Q828 736 790 736 L790 622 L799 622 Q854 622 998 679 L998 764 Q975 764 922 736 ZM771 509 L771 395 Q988 422 988 461 L988 566 Q966 566 771 509 ZM742 319 Q723 239 723 178 L733 178 Q848 197 960 197 L960 216 Q960 269 875 319 L742 319 ZM1234 64 L1253 64 Q1585 -46 1585 -211 Q1554 -229 1528 -229 L1518 -229 Q1310 -45 1234 64 Z" /><glyph glyph-name="uni982B" unicode="&#x982b;" d="M637 1305 Q791 1287 791 1169 L791 1041 Q791 996 782 895 Q799 895 902 955 L927 955 Q985 955 1055 870 L1055 784 Q1011 784 953 691 Q979 570 979 520 L979 486 L970 486 Q807 504 807 614 L807 623 Q851 836 851 879 L843 879 Q742 879 715 452 Q715 280 979 17 L979 0 L962 0 Q669 0 586 452 L586 673 Q539 673 373 153 Q235 -128 159 -128 L151 -128 L134 -43 Q270 101 270 204 L193 204 Q174 204 151 332 Q193 442 228 554 Q281 527 322 494 L330 494 Q330 514 373 623 Q371 670 228 844 Q245 916 245 930 L253 930 Q327 930 458 742 Q484 678 484 648 Q604 710 604 818 Q604 841 586 921 Q604 994 604 1049 Q604 1073 543 1245 Q618 1305 637 1305 ZM1473 1288 L1516 1288 Q1548 1268 1575 1219 L1575 1194 Q1575 1105 1310 1082 L1310 1032 Q1360 971 1413 946 Q1413 978 1541 1007 Q1695 939 1695 784 Q1695 522 1712 102 Q1704 32 1695 17 Q1786 17 1806 -188 L1806 -205 Q1649 -125 1508 0 Q1421 71 1421 93 L1499 93 L1541 85 L1541 145 Q1541 221 1524 290 Q1157 -52 1046 -52 L1038 -35 L1038 -26 L1174 102 Q1090 251 1090 290 Q1090 514 1132 605 Q1115 669 1115 724 L1115 751 Q1260 912 1260 1032 Q1072 1046 1072 1194 L1072 1236 L1081 1236 Q1130 1236 1218 1228 Q1330 1288 1473 1288 ZM1260 768 L1260 716 Q1260 704 1285 691 Q1383 742 1413 742 Q1475 716 1524 707 L1524 784 Q1440 784 1388 844 Q1278 768 1260 768 ZM1277 640 L1277 460 Q1383 520 1447 520 Q1480 513 1499 460 Q1486 426 1473 426 L1277 426 Q1269 405 1269 315 Q1362 367 1430 384 Q1496 364 1524 349 L1524 623 L1447 614 Q1376 614 1277 640 Z" /><glyph glyph-name="uni9875" unicode="&#x9875;" d="M1489 1408 Q1712 1408 1745 1285 L1745 1275 Q1683 1256 1659 1256 L1622 1256 Q1483 1275 1470 1275 L1158 1275 Q987 1256 987 1228 Q1082 1129 1082 1076 L1082 1048 Q878 889 751 830 L751 840 Q907 1040 931 1115 Q908 1190 836 1190 Q378 1029 297 1029 Q249 1029 155 1058 L155 1086 L164 1086 Q401 1124 1432 1369 Q1432 1408 1489 1408 ZM1328 963 Q1426 963 1537 736 Q1510 635 1186 348 L1177 367 L1177 386 L1318 717 Q1328 794 1338 811 Q1308 887 1262 887 L1016 859 Q965 868 931 868 L931 878 Q1013 878 1328 963 ZM656 688 L675 688 Q760 551 760 414 L760 253 Q760 103 666 73 Q580 115 580 206 Q580 243 656 537 L656 688 ZM884 679 Q985 679 1073 490 Q1082 475 1082 443 L1082 386 Q1082 154 799 -68 L789 -68 Q969 209 969 462 Q969 532 884 651 L884 679 ZM1196 197 L1205 197 Q1574 91 1574 -153 L1574 -163 Q1550 -210 1498 -210 L1196 187 L1196 197 Z" /></font>
</defs>
</svg>
