<svg xmlns="http://www.w3.org/2000/svg" xmlns:xlink="http://www.w3.org/1999/xlink" contentStyleType="text/css" data-diagram-type="CLASS" height="668.1694px" preserveAspectRatio="none" style="width:800px;height:668px;background:#FFFFFF;" version="1.1" viewBox="0 0 800 668" width="800.3664px" zoomAndPan="magnify"><defs/><g><!--class Cache--><g id="elem_Cache"><rect codeLine="4" fill="#F1F1F1" height="99.1477" id="Cache" rx="1.7962" ry="1.7962" style="stroke:#181818;stroke-width:0.3592;" width="307.4585" x="5.0292" y="290.977"/><ellipse cx="139.6474" cy="302.4724" fill="#B4A7E5" rx="7.9031" ry="7.9031" style="stroke:#181818;stroke-width:0.7185;"/><path d="M137.3194,300.2949 L137.3194,298.9267 L141.9975,298.9267 L141.9975,300.2949 L140.4346,300.2949 L140.4346,305.415 L141.9975,305.415 L141.9975,306.7832 L137.3194,306.7832 L137.3194,305.415 L138.8823,305.415 L138.8823,300.2949 Z " fill="#000000"/><text fill="#000000" font-family="Albert Sans" font-size="10.7769" font-style="italic" lengthAdjust="spacing" textLength="32.1152" x="154.3759" y="306.2443">Cache</text><line style="stroke:#181818;stroke-width:0.3592;" x1="5.7477" x2="311.7693" y1="313.9678" y2="313.9678"/><line style="stroke:#181818;stroke-width:0.3592;" x1="5.7477" x2="311.7693" y1="319.7155" y2="319.7155"/><ellipse cx="12.9323" cy="330.1332" fill="#84BE84" rx="2.1554" ry="2.1554" style="stroke:#038048;stroke-width:0.7185;"/><text fill="#000000" font-family="Albert Sans" font-size="10.7769" lengthAdjust="spacing" textLength="288.7785" x="19.3985" y="332.8274">virtual Handle* Insert(const Slice&amp; key, void* value, ...) = 0</text><ellipse cx="12.9323" cy="343.0655" fill="#84BE84" rx="2.1554" ry="2.1554" style="stroke:#038048;stroke-width:0.7185;"/><text fill="#000000" font-family="Albert Sans" font-size="10.7769" lengthAdjust="spacing" textLength="222.8561" x="19.3985" y="345.7597">virtual Handle* Lookup(const Slice&amp; key) = 0</text><ellipse cx="12.9323" cy="355.9978" fill="#84BE84" rx="2.1554" ry="2.1554" style="stroke:#038048;stroke-width:0.7185;"/><text fill="#000000" font-family="Albert Sans" font-size="10.7769" lengthAdjust="spacing" textLength="194.739" x="19.3985" y="358.692">virtual void* Value(Handle* handle) = 0</text><ellipse cx="12.9323" cy="368.9301" fill="#84BE84" rx="2.1554" ry="2.1554" style="stroke:#038048;stroke-width:0.7185;"/><text fill="#000000" font-family="Albert Sans" font-size="10.7769" lengthAdjust="spacing" textLength="200.2676" x="19.3985" y="371.6243">virtual void Release(Handle* handle) = 0</text><ellipse cx="12.9323" cy="381.8624" fill="#84BE84" rx="2.1554" ry="2.1554" style="stroke:#038048;stroke-width:0.7185;"/><text fill="#000000" font-family="Albert Sans" font-size="10.7769" lengthAdjust="spacing" textLength="195.4934" x="19.3985" y="384.5567">virtual void Erase(const Slice&amp; key) = 0</text></g><!--class ShardedLRUCache--><g id="elem_ShardedLRUCache"><rect codeLine="12" fill="#F1F1F1" height="150.877" id="ShardedLRUCache" rx="1.7962" ry="1.7962" style="stroke:#181818;stroke-width:0.3592;" width="254.102" x="57.5703" y="512.2632"/><ellipse cx="135.0816" cy="523.7586" fill="#ADD1B2" rx="7.9031" ry="7.9031" style="stroke:#181818;stroke-width:0.7185;"/><path d="M136.4592,527.4839 Q136.0909,527.6733 135.6857,527.768 Q135.2805,527.8628 134.8332,527.8628 Q133.244,527.8628 132.4074,526.8156 Q131.5707,525.7684 131.5707,523.7898 Q131.5707,521.806 132.4074,520.7588 Q133.244,519.7117 134.8332,519.7117 Q135.2805,519.7117 135.691,519.8064 Q136.1014,519.9011 136.4592,520.0905 L136.4592,521.8165 Q136.0593,521.4482 135.6831,521.2771 Q135.3068,521.1061 134.9069,521.1061 Q134.0544,521.1061 133.6203,521.7823 Q133.1862,522.4585 133.1862,523.7898 Q133.1862,525.1159 133.6203,525.7921 Q134.0544,526.4683 134.9069,526.4683 Q135.3068,526.4683 135.6831,526.2973 Q136.0593,526.1262 136.4592,525.7579 Z " fill="#000000"/><text fill="#000000" font-family="Albert Sans" font-size="10.7769" lengthAdjust="spacing" textLength="92.9725" x="149.8101" y="527.5305">ShardedLRUCache</text><line style="stroke:#181818;stroke-width:0.3592;" x1="58.2888" x2="310.9539" y1="535.254" y2="535.254"/><rect fill="#FFFFFF" fill-opacity="0.00000" height="4.3108" style="stroke:#C82930;stroke-width:0.7185;" width="4.3108" x="63.318" y="543.5163"/><text fill="#000000" font-family="Albert Sans" font-size="10.7769" lengthAdjust="spacing" textLength="156.6965" x="71.9396" y="548.3659">LRUCache shard_[kNumShards]</text><rect fill="#FFFFFF" fill-opacity="0.00000" height="4.3108" style="stroke:#C82930;stroke-width:0.7185;" width="4.3108" x="63.318" y="556.4486"/><text fill="#000000" font-family="Albert Sans" font-size="10.7769" lengthAdjust="spacing" textLength="110.6575" x="71.9396" y="561.2982">port::Mutex id_mutex_</text><rect fill="#FFFFFF" fill-opacity="0.00000" height="4.3108" style="stroke:#C82930;stroke-width:0.7185;" width="4.3108" x="63.318" y="569.3809"/><text fill="#000000" font-family="Albert Sans" font-size="10.7769" lengthAdjust="spacing" textLength="82.0447" x="71.9396" y="574.2306">uint64_t last_id_</text><line style="stroke:#181818;stroke-width:0.3592;" x1="58.2888" x2="310.9539" y1="579.7986" y2="579.7986"/><ellipse cx="65.4734" cy="590.2163" fill="#84BE84" rx="2.1554" ry="2.1554" style="stroke:#038048;stroke-width:0.7185;"/><text fill="#000000" font-family="Albert Sans" font-size="10.7769" lengthAdjust="spacing" textLength="213.9975" x="71.9396" y="592.9106">explicit ShardedLRUCache(size_t capacity)</text><ellipse cx="65.4734" cy="603.1486" fill="#84BE84" rx="2.1554" ry="2.1554" style="stroke:#038048;stroke-width:0.7185;"/><text fill="#000000" font-family="Albert Sans" font-size="10.7769" lengthAdjust="spacing" textLength="235.422" x="71.9396" y="605.8429">Handle* Insert(const Slice&amp; key, void* value, ...)</text><ellipse cx="65.4734" cy="616.0809" fill="#84BE84" rx="2.1554" ry="2.1554" style="stroke:#038048;stroke-width:0.7185;"/><text fill="#000000" font-family="Albert Sans" font-size="10.7769" lengthAdjust="spacing" textLength="213.7819" x="71.9396" y="618.7752">Handle* Lookup(const Slice&amp; key) override</text><ellipse cx="65.4734" cy="629.0133" fill="#84BE84" rx="2.1554" ry="2.1554" style="stroke:#038048;stroke-width:0.7185;"/><text fill="#000000" font-family="Albert Sans" font-size="10.7769" lengthAdjust="spacing" textLength="191.1934" x="71.9396" y="631.7075">void Release(Handle* handle) override</text><ellipse cx="65.4734" cy="641.9456" fill="#84BE84" rx="2.1554" ry="2.1554" style="stroke:#038048;stroke-width:0.7185;"/><text fill="#000000" font-family="Albert Sans" font-size="10.7769" lengthAdjust="spacing" textLength="186.4193" x="71.9396" y="644.6398">void Erase(const Slice&amp; key) override</text><ellipse cx="65.4734" cy="654.8779" fill="#84BE84" rx="2.1554" ry="2.1554" style="stroke:#038048;stroke-width:0.7185;"/><text fill="#000000" font-family="Albert Sans" font-size="10.7769" lengthAdjust="spacing" textLength="185.6649" x="71.9396" y="657.5721">void* Value(Handle* handle) override</text></g><!--class LRUCache--><g id="elem_LRUCache"><rect codeLine="25" fill="#F1F1F1" height="228.4708" id="LRUCache" rx="1.7962" ry="1.7962" style="stroke:#181818;stroke-width:0.3592;" width="364.3607" x="337.9644" y="226.3155"/><ellipse cx="491.1081" cy="237.8108" fill="#ADD1B2" rx="7.9031" ry="7.9031" style="stroke:#181818;stroke-width:0.7185;"/><path d="M492.4858,241.5361 Q492.1174,241.7255 491.7122,241.8203 Q491.307,241.915 490.8598,241.915 Q489.2706,241.915 488.4339,240.8678 Q487.5972,239.8206 487.5972,237.8421 Q487.5972,235.8582 488.4339,234.8111 Q489.2706,233.7639 490.8598,233.7639 Q491.307,233.7639 491.7175,233.8586 Q492.1279,233.9533 492.4858,234.1428 L492.4858,235.8687 Q492.0858,235.5004 491.7096,235.3294 Q491.3334,235.1584 490.9334,235.1584 Q490.081,235.1584 489.6468,235.8345 Q489.2127,236.5107 489.2127,237.8421 Q489.2127,239.1681 489.6468,239.8443 Q490.081,240.5205 490.9334,240.5205 Q491.3334,240.5205 491.7096,240.3495 Q492.0858,240.1785 492.4858,239.8101 Z " fill="#000000"/><text fill="#000000" font-family="Albert Sans" font-size="10.7769" lengthAdjust="spacing" textLength="51.9663" x="505.8366" y="241.5828">LRUCache</text><line style="stroke:#181818;stroke-width:0.3592;" x1="338.6829" x2="701.6067" y1="249.3062" y2="249.3062"/><rect fill="#FFFFFF" fill-opacity="0.00000" height="4.3108" style="stroke:#C82930;stroke-width:0.7185;" width="4.3108" x="343.7121" y="257.5685"/><text fill="#000000" font-family="Albert Sans" font-size="10.7769" lengthAdjust="spacing" textLength="75.2337" x="352.3336" y="262.4182">LRUHandle lru_</text><rect fill="#FFFFFF" fill-opacity="0.00000" height="4.3108" style="stroke:#C82930;stroke-width:0.7185;" width="4.3108" x="343.7121" y="270.5008"/><text fill="#000000" font-family="Albert Sans" font-size="10.7769" lengthAdjust="spacing" textLength="94.4921" x="352.3336" y="275.3505">LRUHandle in_use_</text><rect fill="#FFFFFF" fill-opacity="0.00000" height="4.3108" style="stroke:#C82930;stroke-width:0.7185;" width="4.3108" x="343.7121" y="283.4332"/><text fill="#000000" font-family="Albert Sans" font-size="10.7769" lengthAdjust="spacing" textLength="94.8693" x="352.3336" y="288.2828">HandleTable table_</text><line style="stroke:#181818;stroke-width:0.3592;" x1="338.6829" x2="701.6067" y1="293.8509" y2="293.8509"/><ellipse cx="345.8675" cy="304.2686" fill="#84BE84" rx="2.1554" ry="2.1554" style="stroke:#038048;stroke-width:0.7185;"/><text fill="#000000" font-family="Albert Sans" font-size="10.7769" lengthAdjust="spacing" textLength="166.9777" x="352.3336" y="306.9628">void SetCapacity(size_t capacity)</text><ellipse cx="345.8675" cy="317.2009" fill="#84BE84" rx="2.1554" ry="2.1554" style="stroke:#038048;stroke-width:0.7185;"/><text fill="#000000" font-family="Albert Sans" font-size="10.7769" lengthAdjust="spacing" textLength="345.6807" x="352.3336" y="319.8951">Cache::Handle* Insert(const Slice&amp; key, uint32_t hash, void* value, ...)</text><ellipse cx="345.8675" cy="330.1332" fill="#84BE84" rx="2.1554" ry="2.1554" style="stroke:#038048;stroke-width:0.7185;"/><text fill="#000000" font-family="Albert Sans" font-size="10.7769" lengthAdjust="spacing" textLength="279.7583" x="352.3336" y="332.8274">Cache::Handle* Lookup(const Slice&amp; key, uint32_t hash)</text><ellipse cx="345.8675" cy="343.0655" fill="#84BE84" rx="2.1554" ry="2.1554" style="stroke:#038048;stroke-width:0.7185;"/><text fill="#000000" font-family="Albert Sans" font-size="10.7769" lengthAdjust="spacing" textLength="184.2854" x="352.3336" y="345.7597">void Release(Cache::Handle* handle)</text><ellipse cx="345.8675" cy="355.9978" fill="#84BE84" rx="2.1554" ry="2.1554" style="stroke:#038048;stroke-width:0.7185;"/><text fill="#000000" font-family="Albert Sans" font-size="10.7769" lengthAdjust="spacing" textLength="215.0213" x="352.3336" y="358.692">void Erase(const Slice&amp; key, uint32_t hash)</text><ellipse cx="345.8675" cy="368.9301" fill="#84BE84" rx="2.1554" ry="2.1554" style="stroke:#038048;stroke-width:0.7185;"/><text fill="#000000" font-family="Albert Sans" font-size="10.7769" lengthAdjust="spacing" textLength="61.8488" x="352.3336" y="371.6243">void Prune()</text><text fill="#000000" font-family="Albert Sans" font-size="10.7769" lengthAdjust="spacing" textLength="3.0175" x="352.3336" y="384.5567">&#160;</text><rect fill="#F24D5C" height="4.3108" style="stroke:#C82930;stroke-width:0.7185;" width="4.3108" x="343.7121" y="392.6393"/><text fill="#000000" font-family="Albert Sans" font-size="10.7769" lengthAdjust="spacing" textLength="167.6566" x="352.3336" y="397.489">void LRU_Remove(LRUHandle* e)</text><rect fill="#F24D5C" height="4.3108" style="stroke:#C82930;stroke-width:0.7185;" width="4.3108" x="343.7121" y="405.5717"/><text fill="#000000" font-family="Albert Sans" font-size="10.7769" lengthAdjust="spacing" textLength="248.4836" x="352.3336" y="410.4213">void LRU_Append(LRUHandle* list, LRUHandle* e)</text><rect fill="#F24D5C" height="4.3108" style="stroke:#C82930;stroke-width:0.7185;" width="4.3108" x="343.7121" y="418.504"/><text fill="#000000" font-family="Albert Sans" font-size="10.7769" lengthAdjust="spacing" textLength="117.975" x="352.3336" y="423.3536">void Ref(LRUHandle* e)</text><rect fill="#F24D5C" height="4.3108" style="stroke:#C82930;stroke-width:0.7185;" width="4.3108" x="343.7121" y="431.4363"/><text fill="#000000" font-family="Albert Sans" font-size="10.7769" lengthAdjust="spacing" textLength="128.6981" x="352.3336" y="436.2859">void Unref(LRUHandle* e)</text><rect fill="#F24D5C" height="4.3108" style="stroke:#C82930;stroke-width:0.7185;" width="4.3108" x="343.7121" y="444.3686"/><text fill="#000000" font-family="Albert Sans" font-size="10.7769" lengthAdjust="spacing" textLength="158.5393" x="352.3336" y="449.2182">bool FinishErase(LRUHandle* e)</text></g><!--class LRUHandle--><g id="elem_LRUHandle"><rect codeLine="44" fill="#F1F1F1" height="163.8093" id="LRUHandle" rx="1.7962" ry="1.7962" style="stroke:#181818;stroke-width:0.3592;" width="130.9109" x="332.5544" y="5.0292"/><ellipse cx="367.8201" cy="16.5246" fill="#ADD1B2" rx="7.9031" ry="7.9031" style="stroke:#181818;stroke-width:0.7185;"/><path d="M369.1977,20.2499 Q368.8294,20.4393 368.4242,20.534 Q368.019,20.6288 367.5717,20.6288 Q365.9825,20.6288 365.1458,19.5816 Q364.3092,18.5344 364.3092,16.5558 Q364.3092,14.572 365.1458,13.5248 Q365.9825,12.4777 367.5717,12.4777 Q368.019,12.4777 368.4294,12.5724 Q368.8399,12.6671 369.1977,12.8565 L369.1977,14.5825 Q368.7978,14.2142 368.4215,14.0432 Q368.0453,13.8721 367.6454,13.8721 Q366.7929,13.8721 366.3588,14.5483 Q365.9246,15.2245 365.9246,16.5558 Q365.9246,17.8819 366.3588,18.5581 Q366.7929,19.2343 367.6454,19.2343 Q368.0453,19.2343 368.4215,19.0633 Q368.7978,18.8922 369.1977,18.5239 Z " fill="#000000"/><text fill="#000000" font-family="Albert Sans" font-size="10.7769" lengthAdjust="spacing" textLength="54.2726" x="382.5485" y="20.2965">LRUHandle</text><line style="stroke:#181818;stroke-width:0.3592;" x1="333.2729" x2="462.7468" y1="28.02" y2="28.02"/><ellipse cx="340.4575" cy="38.4377" fill="#FFFFFF" fill-opacity="0.00000" rx="2.1554" ry="2.1554" style="stroke:#038048;stroke-width:0.7185;"/><text fill="#000000" font-family="Albert Sans" font-size="10.7769" lengthAdjust="spacing" textLength="55.4581" x="346.9236" y="41.1319">void* value</text><ellipse cx="340.4575" cy="51.37" fill="#FFFFFF" fill-opacity="0.00000" rx="2.1554" ry="2.1554" style="stroke:#038048;stroke-width:0.7185;"/><text fill="#000000" font-family="Albert Sans" font-size="10.7769" lengthAdjust="spacing" textLength="112.2309" x="346.9236" y="54.0642">LRUHandle* next_hash</text><ellipse cx="340.4575" cy="64.3023" fill="#FFFFFF" fill-opacity="0.00000" rx="2.1554" ry="2.1554" style="stroke:#038048;stroke-width:0.7185;"/><text fill="#000000" font-family="Albert Sans" font-size="10.7769" lengthAdjust="spacing" textLength="83.6505" x="346.9236" y="66.9966">LRUHandle* next</text><ellipse cx="340.4575" cy="77.2346" fill="#FFFFFF" fill-opacity="0.00000" rx="2.1554" ry="2.1554" style="stroke:#038048;stroke-width:0.7185;"/><text fill="#000000" font-family="Albert Sans" font-size="10.7769" lengthAdjust="spacing" textLength="84.5881" x="346.9236" y="79.9289">LRUHandle* prev</text><ellipse cx="340.4575" cy="90.1669" fill="#FFFFFF" fill-opacity="0.00000" rx="2.1554" ry="2.1554" style="stroke:#038048;stroke-width:0.7185;"/><text fill="#000000" font-family="Albert Sans" font-size="10.7769" lengthAdjust="spacing" textLength="85.2778" x="346.9236" y="92.8612">size_t key_length</text><ellipse cx="340.4575" cy="103.0993" fill="#FFFFFF" fill-opacity="0.00000" rx="2.1554" ry="2.1554" style="stroke:#038048;stroke-width:0.7185;"/><text fill="#000000" font-family="Albert Sans" font-size="10.7769" lengthAdjust="spacing" textLength="68.9831" x="346.9236" y="105.7935">bool in_cache</text><ellipse cx="340.4575" cy="116.0316" fill="#FFFFFF" fill-opacity="0.00000" rx="2.1554" ry="2.1554" style="stroke:#038048;stroke-width:0.7185;"/><text fill="#000000" font-family="Albert Sans" font-size="10.7769" lengthAdjust="spacing" textLength="62.5601" x="346.9236" y="118.7258">uint32_t refs</text><ellipse cx="340.4575" cy="128.9639" fill="#FFFFFF" fill-opacity="0.00000" rx="2.1554" ry="2.1554" style="stroke:#038048;stroke-width:0.7185;"/><text fill="#000000" font-family="Albert Sans" font-size="10.7769" lengthAdjust="spacing" textLength="67.0217" x="346.9236" y="131.6581">uint32_t hash</text><ellipse cx="340.4575" cy="141.8962" fill="#FFFFFF" fill-opacity="0.00000" rx="2.1554" ry="2.1554" style="stroke:#038048;stroke-width:0.7185;"/><text fill="#000000" font-family="Albert Sans" font-size="10.7769" lengthAdjust="spacing" textLength="78.8548" x="346.9236" y="144.5904">char key_data[1]</text><line style="stroke:#181818;stroke-width:0.3592;" x1="333.2729" x2="462.7468" y1="150.1585" y2="150.1585"/><ellipse cx="340.4575" cy="160.5762" fill="#84BE84" rx="2.1554" ry="2.1554" style="stroke:#038048;stroke-width:0.7185;"/><text fill="#000000" font-family="Albert Sans" font-size="10.7769" lengthAdjust="spacing" textLength="52.5052" x="346.9236" y="163.2704">Slice key()</text></g><!--class HandleTable--><g id="elem_HandleTable"><rect codeLine="57" fill="#F1F1F1" height="137.9447" id="HandleTable" rx="1.7962" ry="1.7962" style="stroke:#181818;stroke-width:0.3592;" width="306.8119" x="488.8773" y="17.9615"/><ellipse cx="608.3539" cy="29.4569" fill="#ADD1B2" rx="7.9031" ry="7.9031" style="stroke:#181818;stroke-width:0.7185;"/><path d="M609.7315,33.1822 Q609.3632,33.3716 608.958,33.4664 Q608.5528,33.5611 608.1055,33.5611 Q606.5164,33.5611 605.6797,32.5139 Q604.843,31.4667 604.843,29.4882 Q604.843,27.5043 605.6797,26.4571 Q606.5164,25.41 608.1055,25.41 Q608.5528,25.41 608.9633,25.5047 Q609.3737,25.5994 609.7315,25.7888 L609.7315,27.5148 Q609.3316,27.1465 608.9554,26.9755 Q608.5791,26.8044 608.1792,26.8044 Q607.3267,26.8044 606.8926,27.4806 Q606.4585,28.1568 606.4585,29.4882 Q606.4585,30.8142 606.8926,31.4904 Q607.3267,32.1666 608.1792,32.1666 Q608.5791,32.1666 608.9554,31.9956 Q609.3316,31.8246 609.7315,31.4562 Z " fill="#000000"/><text fill="#000000" font-family="Albert Sans" font-size="10.7769" lengthAdjust="spacing" textLength="61.7518" x="623.0824" y="33.2289">HandleTable</text><line style="stroke:#181818;stroke-width:0.3592;" x1="489.5958" x2="794.9708" y1="40.9523" y2="40.9523"/><rect fill="#FFFFFF" fill-opacity="0.00000" height="4.3108" style="stroke:#C82930;stroke-width:0.7185;" width="4.3108" x="494.625" y="49.2146"/><text fill="#000000" font-family="Albert Sans" font-size="10.7769" lengthAdjust="spacing" textLength="80.5791" x="503.2465" y="54.0642">uint32_t length_</text><rect fill="#FFFFFF" fill-opacity="0.00000" height="4.3108" style="stroke:#C82930;stroke-width:0.7185;" width="4.3108" x="494.625" y="62.1469"/><text fill="#000000" font-family="Albert Sans" font-size="10.7769" lengthAdjust="spacing" textLength="78.9302" x="503.2465" y="66.9966">uint32_t elems_</text><rect fill="#FFFFFF" fill-opacity="0.00000" height="4.3108" style="stroke:#C82930;stroke-width:0.7185;" width="4.3108" x="494.625" y="75.0793"/><text fill="#000000" font-family="Albert Sans" font-size="10.7769" lengthAdjust="spacing" textLength="87.25" x="503.2465" y="79.9289">LRUHandle** list_</text><line style="stroke:#181818;stroke-width:0.3592;" x1="489.5958" x2="794.9708" y1="85.4969" y2="85.4969"/><ellipse cx="496.7804" cy="95.9146" fill="#84BE84" rx="2.1554" ry="2.1554" style="stroke:#038048;stroke-width:0.7185;"/><text fill="#000000" font-family="Albert Sans" font-size="10.7769" lengthAdjust="spacing" textLength="262.235" x="503.2465" y="98.6089">LRUHandle* Lookup(const Slice&amp; key, uint32_t hash)</text><ellipse cx="496.7804" cy="108.847" fill="#84BE84" rx="2.1554" ry="2.1554" style="stroke:#038048;stroke-width:0.7185;"/><text fill="#000000" font-family="Albert Sans" font-size="10.7769" lengthAdjust="spacing" textLength="167.3872" x="503.2465" y="111.5412">LRUHandle* Insert(LRUHandle* h)</text><ellipse cx="496.7804" cy="121.7793" fill="#84BE84" rx="2.1554" ry="2.1554" style="stroke:#038048;stroke-width:0.7185;"/><text fill="#000000" font-family="Albert Sans" font-size="10.7769" lengthAdjust="spacing" textLength="266.3302" x="503.2465" y="124.4735">LRUHandle* Remove(const Slice&amp; key, uint32_t hash)</text><rect fill="#F24D5C" height="4.3108" style="stroke:#C82930;stroke-width:0.7185;" width="4.3108" x="494.625" y="132.5562"/><text fill="#000000" font-family="Albert Sans" font-size="10.7769" lengthAdjust="spacing" textLength="288.1319" x="503.2465" y="137.4058">LRUHandle** FindPointer(const Slice&amp; key, uint32_t hash)</text><rect fill="#F24D5C" height="4.3108" style="stroke:#C82930;stroke-width:0.7185;" width="4.3108" x="494.625" y="145.4885"/><text fill="#000000" font-family="Albert Sans" font-size="10.7769" lengthAdjust="spacing" textLength="65.125" x="503.2465" y="150.3381">void Resize()</text></g><!--reverse link Cache to ShardedLRUCache--><g id="link_Cache_ShardedLRUCache"><path codeLine="69" d="M165.2855,403.2662 C168.9497,438.0684 172.5745,472.5323 176.7344,512.0261 " fill="#FFFFFF" fill-opacity="0.00000" id="Cache-backto-ShardedLRUCache" style="stroke:#181818;stroke-width:0.7185;"/><polygon fill="#FFFFFF" fill-opacity="0.00000" points="163.9314,390.4049,160.9984,403.7175,169.5726,402.8148,163.9314,390.4049" style="stroke:#181818;stroke-width:0.7185;"/><text fill="#000000" font-family="Albert Sans" font-size="10.7769" lengthAdjust="spacing" textLength="21.5539" x="174.7227" y="487.2967">&#23454;&#29616;</text></g><!--reverse link LRUHandle to LRUCache--><g id="link_LRUHandle_LRUCache"><path codeLine="70" d="M441.2499,176.9361 C450.0295,195.0701 455.7418,206.8523 465.0172,226.0137 " fill="#FFFFFF" fill-opacity="0.00000" id="LRUHandle-backto-LRUCache" style="stroke:#181818;stroke-width:0.7185;"/><polygon fill="#181818" points="437.4929,169.1762,436.7848,174.3085,441.2499,176.9361,441.958,171.8038,437.4929,169.1762" style="stroke:#181818;stroke-width:0.7185;"/><text fill="#000000" font-family="Albert Sans" font-size="10.7769" lengthAdjust="spacing" textLength="21.5539" x="452.48" y="201.3489">&#20851;&#32852;</text></g><!--reverse link HandleTable to LRUCache--><g id="link_HandleTable_LRUCache"><path codeLine="71" d="M605.3105,163.9888 C594.8569,185.5714 586.7749,202.2614 575.222,226.1143 " fill="#FFFFFF" fill-opacity="0.00000" id="HandleTable-backto-LRUCache" style="stroke:#181818;stroke-width:0.7185;"/><polygon fill="#181818" points="609.0688,156.2295,604.6032,158.8564,605.3105,163.9888,609.7761,161.3619,609.0688,156.2295" style="stroke:#181818;stroke-width:0.7185;"/><text fill="#000000" font-family="Albert Sans" font-size="10.7769" lengthAdjust="spacing" textLength="21.5539" x="592.8746" y="201.3489">&#20851;&#32852;</text></g><!--reverse link LRUCache to ShardedLRUCache--><g id="link_LRUCache_ShardedLRUCache"><path codeLine="72" d="M357.7062,460.2316 C331.3889,479.5008 311.6328,493.9712 287.1189,511.9255 " fill="#FFFFFF" fill-opacity="0.00000" id="LRUCache-backto-ShardedLRUCache" style="stroke:#181818;stroke-width:0.7185;"/><polygon fill="#181818" points="364.6624,455.1383,359.4866,455.3662,357.7062,460.2316,362.8821,460.0037,364.6624,455.1383" style="stroke:#181818;stroke-width:0.7185;"/><text fill="#000000" font-family="Albert Sans" font-size="10.7769" lengthAdjust="spacing" textLength="21.5539" x="333.0142" y="487.2967">&#20851;&#32852;</text></g><!--SRC=[bLLDRzD04BtxLunwG4b8efGleGWELKK5KgcgX7AfgjN6dk1LrcjhTnrI0eSUUkN4cP-0aFXD27u6ixRZsgxJb4lYVVFsZUVDxDeiX4guvX44EEUfj4UniYSyGjWxa3FK5gPScJtFjF6cuXF2_bFF-5mYH7m5pqSZ-2W26tf2MTHpxYCSSZz4M7iFOIcqJRc4rrm54dlmHXdAqF5ZPIYF53u-W0LUzc4PYw07IovJxCDmEEp2InYr21p7yI9DRWaqwRdSUoVNsMmDi_ys9anG8ZVtehxIZjYU_uld-P8R0zEGwm23uydPnee1b0lZWknySP966SzSK3I9jHsFtwOMLo025ha7HdXAhZvxmYoGhcKKyUY5S9LGPc6RUJg6saDSdoUSmfTTulw_yvLDMzsEbwYr2D2vSvU1JTuszngyRQqhQQNJ5OkB55EqXqNzRNvaxF5ufotE-CUFQ7F8JTZkKaDgYraDgMxJiePAKUhTXctJFDMfmaxNey79rkGEcs14jdNeSPE2r2lnWoH15LJZKXZRXzOD4votAvqftHAQnR648w642VD2weJyLEG0I9so6Y0KImqwB0VUyHcXrlsosW0K_7KvF5cRQ5N9fd1bcVFgDbn74erBGeh98Q-PHFN1kdrPDVHMlkiOhSiUKEcckYxo-7GwCuM0Mtw-Vq5GraA7KPFA4ghbhUjlS_-PgcmgPhg2D1d5JEoKBIwW3CbjO5M89ZWojQRrykbfOZG2mMcSVI1s9or7pVKWzoa_uYy-3mRDAsyCltzy__FrftSp1xt1pMLBuUjVVw- -ULMFMmdbHT9hJPAH_W40]--></g></svg>