<svg xmlns="http://www.w3.org/2000/svg" xmlns:xlink="http://www.w3.org/1999/xlink" contentStyleType="text/css" data-diagram-type="CLASS" height="428.3609px" preserveAspectRatio="none" style="width:800px;height:428px;background:#FFFFFF;" version="1.1" viewBox="0 0 800 428" width="800.3269px" zoomAndPan="magnify"><defs/><g><!--class Cache--><g id="elem_Cache"><rect codeLine="4" fill="#F1F1F1" height="82.7924" id="Cache" rx="1.4999" ry="1.4999" style="stroke:#181818;stroke-width:0.3;" width="256.7406" x="4.1996" y="9.5991"/><ellipse cx="116.6114" cy="19.1982" fill="#B4A7E5" rx="6.5994" ry="6.5994" style="stroke:#181818;stroke-width:0.5999;"/><path d="M114.6674,17.38 L114.6674,16.2375 L118.5738,16.2375 L118.5738,17.38 L117.2687,17.38 L117.2687,21.6554 L118.5738,21.6554 L118.5738,22.7979 L114.6674,22.7979 L114.6674,21.6554 L115.9724,21.6554 L115.9724,17.38 Z " fill="#000000"/><text fill="#000000" font-family="Albert Sans" font-size="8.9992" font-style="italic" lengthAdjust="spacing" textLength="26.8176" x="128.9102" y="22.348">Cache</text><line style="stroke:#181818;stroke-width:0.3;" x1="4.7996" x2="260.3402" y1="28.7974" y2="28.7974"/><line style="stroke:#181818;stroke-width:0.3;" x1="4.7996" x2="260.3402" y1="33.5969" y2="33.5969"/><ellipse cx="10.799" cy="42.2961" fill="#84BE84" rx="1.7998" ry="1.7998" style="stroke:#038048;stroke-width:0.5999;"/><text fill="#000000" font-family="Albert Sans" font-size="8.9992" lengthAdjust="spacing" textLength="241.142" x="16.1985" y="44.5459">virtual Handle* Insert(const Slice&amp; key, void* value, ...) = 0</text><ellipse cx="10.799" cy="53.0951" fill="#84BE84" rx="1.7998" ry="1.7998" style="stroke:#038048;stroke-width:0.5999;"/><text fill="#000000" font-family="Albert Sans" font-size="8.9992" lengthAdjust="spacing" textLength="186.094" x="16.1985" y="55.3449">virtual Handle* Lookup(const Slice&amp; key) = 0</text><ellipse cx="10.799" cy="63.8942" fill="#84BE84" rx="1.7998" ry="1.7998" style="stroke:#038048;stroke-width:0.5999;"/><text fill="#000000" font-family="Albert Sans" font-size="8.9992" lengthAdjust="spacing" textLength="162.6151" x="16.1985" y="66.144">virtual void* Value(Handle* handle) = 0</text><ellipse cx="10.799" cy="74.6932" fill="#84BE84" rx="1.7998" ry="1.7998" style="stroke:#038048;stroke-width:0.5999;"/><text fill="#000000" font-family="Albert Sans" font-size="8.9992" lengthAdjust="spacing" textLength="167.2317" x="16.1985" y="76.943">virtual void Release(Handle* handle) = 0</text><ellipse cx="10.799" cy="85.4922" fill="#84BE84" rx="1.7998" ry="1.7998" style="stroke:#038048;stroke-width:0.5999;"/><text fill="#000000" font-family="Albert Sans" font-size="8.9992" lengthAdjust="spacing" textLength="163.2451" x="16.1985" y="87.742">virtual void Erase(const Slice&amp; key) = 0</text></g><!--class ShardedLRUCache--><g id="elem_ShardedLRUCache"><rect codeLine="12" fill="#F1F1F1" height="115.1895" id="ShardedLRUCache" rx="1.4999" ry="1.4999" style="stroke:#181818;stroke-width:0.3;" width="194.2953" x="172.8082" y="151.1862"/><ellipse cx="228.5881" cy="160.7853" fill="#ADD1B2" rx="6.5994" ry="6.5994" style="stroke:#181818;stroke-width:0.5999;"/><path d="M229.7385,163.8961 Q229.4309,164.0542 229.0926,164.1333 Q228.7542,164.2124 228.3807,164.2124 Q227.0537,164.2124 226.355,163.338 Q225.6564,162.4636 225.6564,160.8114 Q225.6564,159.1548 226.355,158.2804 Q227.0537,157.4059 228.3807,157.4059 Q228.7542,157.4059 229.097,157.485 Q229.4397,157.5641 229.7385,157.7223 L229.7385,159.1636 Q229.4046,158.856 229.0904,158.7132 Q228.7762,158.5704 228.4422,158.5704 Q227.7304,158.5704 227.3679,159.135 Q227.0054,159.6997 227.0054,160.8114 Q227.0054,161.9187 227.3679,162.4833 Q227.7304,163.048 228.4422,163.048 Q228.7762,163.048 229.0904,162.9052 Q229.4046,162.7624 229.7385,162.4548 Z " fill="#000000"/><text fill="#000000" font-family="Albert Sans" font-size="8.9992" lengthAdjust="spacing" textLength="77.6359" x="240.887" y="163.935">ShardedLRUCache</text><line style="stroke:#181818;stroke-width:0.3;" x1="173.4082" x2="366.5035" y1="170.3844" y2="170.3844"/><rect fill="#FFFFFF" fill-opacity="0.00000" height="3.5997" style="stroke:#C82930;stroke-width:0.5999;" width="3.5997" x="177.6078" y="177.2838"/><text fill="#000000" font-family="Albert Sans" font-size="8.9992" lengthAdjust="spacing" textLength="130.848" x="184.8071" y="181.3334">LRUCache shard_[kNumShards]</text><rect fill="#FFFFFF" fill-opacity="0.00000" height="3.5997" style="stroke:#C82930;stroke-width:0.5999;" width="3.5997" x="177.6078" y="188.0828"/><text fill="#000000" font-family="Albert Sans" font-size="8.9992" lengthAdjust="spacing" textLength="92.4036" x="184.8071" y="192.1324">port::Mutex id_mutex_</text><rect fill="#FFFFFF" fill-opacity="0.00000" height="3.5997" style="stroke:#C82930;stroke-width:0.5999;" width="3.5997" x="177.6078" y="198.8818"/><text fill="#000000" font-family="Albert Sans" font-size="8.9992" lengthAdjust="spacing" textLength="68.5107" x="184.8071" y="202.9315">uint64_t last_id_</text><line style="stroke:#181818;stroke-width:0.3;" x1="173.4082" x2="366.5035" y1="207.581" y2="207.581"/><ellipse cx="179.4076" cy="216.2802" fill="#84BE84" rx="1.7998" ry="1.7998" style="stroke:#038048;stroke-width:0.5999;"/><text fill="#000000" font-family="Albert Sans" font-size="8.9992" lengthAdjust="spacing" textLength="178.6967" x="184.8071" y="218.53">explicit ShardedLRUCache(size_t capacity)</text><ellipse cx="179.4076" cy="227.0793" fill="#84BE84" rx="1.7998" ry="1.7998" style="stroke:#038048;stroke-width:0.5999;"/><text fill="#000000" font-family="Albert Sans" font-size="8.9992" lengthAdjust="spacing" textLength="178.5167" x="184.8071" y="229.329">Handle* Lookup(const Slice&amp; key) override</text><ellipse cx="179.4076" cy="237.8783" fill="#84BE84" rx="1.7998" ry="1.7998" style="stroke:#038048;stroke-width:0.5999;"/><text fill="#000000" font-family="Albert Sans" font-size="8.9992" lengthAdjust="spacing" textLength="159.6544" x="184.8071" y="240.1281">void Release(Handle* handle) override</text><ellipse cx="179.4076" cy="248.6773" fill="#84BE84" rx="1.7998" ry="1.7998" style="stroke:#038048;stroke-width:0.5999;"/><text fill="#000000" font-family="Albert Sans" font-size="8.9992" lengthAdjust="spacing" textLength="155.6678" x="184.8071" y="250.9271">void Erase(const Slice&amp; key) override</text><ellipse cx="179.4076" cy="259.4763" fill="#84BE84" rx="1.7998" ry="1.7998" style="stroke:#038048;stroke-width:0.5999;"/><text fill="#000000" font-family="Albert Sans" font-size="8.9992" lengthAdjust="spacing" textLength="155.0378" x="184.8071" y="261.7261">void* Value(Handle* handle) override</text></g><!--class LRUCache--><g id="elem_LRUCache"><rect codeLine="24" fill="#F1F1F1" height="28.7974" id="LRUCache" rx="1.4999" ry="1.4999" style="stroke:#181818;stroke-width:0.3;" width="62.5923" x="281.8602" y="36.5967"/><ellipse cx="290.8594" cy="46.1958" fill="#ADD1B2" rx="6.5994" ry="6.5994" style="stroke:#181818;stroke-width:0.5999;"/><path d="M292.0098,49.3065 Q291.7022,49.4647 291.3639,49.5438 Q291.0255,49.6229 290.652,49.6229 Q289.325,49.6229 288.6263,48.7485 Q287.9277,47.874 287.9277,46.2219 Q287.9277,44.5653 288.6263,43.6908 Q289.325,42.8164 290.652,42.8164 Q291.0255,42.8164 291.3683,42.8955 Q291.711,42.9746 292.0098,43.1328 L292.0098,44.5741 Q291.6759,44.2665 291.3617,44.1237 Q291.0475,43.9808 290.7135,43.9808 Q290.0017,43.9808 289.6392,44.5455 Q289.2767,45.1101 289.2767,46.2219 Q289.2767,47.3292 289.6392,47.8938 Q290.0017,48.4585 290.7135,48.4585 Q291.0475,48.4585 291.3617,48.3157 Q291.6759,48.1728 292.0098,47.8653 Z " fill="#000000"/><text fill="#000000" font-family="Albert Sans" font-size="8.9992" lengthAdjust="spacing" textLength="43.394" x="299.2587" y="49.3455">LRUCache</text><line style="stroke:#181818;stroke-width:0.3;" x1="282.4602" x2="343.8526" y1="55.7949" y2="55.7949"/><line style="stroke:#181818;stroke-width:0.3;" x1="282.4602" x2="343.8526" y1="60.5945" y2="60.5945"/></g><!--class TableCache--><g id="elem_TableCache"><rect codeLine="26" fill="#F1F1F1" height="104.3905" id="TableCache" rx="1.4999" ry="1.4999" style="stroke:#181818;stroke-width:0.3;" width="501.4554" x="19.2282" y="319.7708"/><ellipse cx="242.5864" cy="329.3699" fill="#ADD1B2" rx="6.5994" ry="6.5994" style="stroke:#181818;stroke-width:0.5999;"/><path d="M243.7368,332.4807 Q243.4292,332.6388 243.0909,332.7179 Q242.7525,332.797 242.379,332.797 Q241.052,332.797 240.3533,331.9226 Q239.6547,331.0482 239.6547,329.396 Q239.6547,327.7394 240.3533,326.865 Q241.052,325.9905 242.379,325.9905 Q242.7525,325.9905 243.0953,326.0696 Q243.438,326.1487 243.7368,326.3069 L243.7368,327.7482 Q243.4029,327.4406 243.0887,327.2978 Q242.7745,327.155 242.4406,327.155 Q241.7287,327.155 241.3662,327.7196 Q241.0037,328.2843 241.0037,329.396 Q241.0037,330.5033 241.3662,331.0679 Q241.7287,331.6326 242.4406,331.6326 Q242.7745,331.6326 243.0887,331.4898 Q243.4029,331.347 243.7368,331.0394 Z " fill="#000000"/><text fill="#000000" font-family="Albert Sans" font-size="8.9992" lengthAdjust="spacing" textLength="49.6395" x="254.8853" y="332.5196">TableCache</text><line style="stroke:#181818;stroke-width:0.3;" x1="19.8282" x2="520.0837" y1="338.969" y2="338.969"/><rect fill="#FFFFFF" fill-opacity="0.00000" height="3.5997" style="stroke:#C82930;stroke-width:0.5999;" width="3.5997" x="24.0278" y="345.8684"/><text fill="#000000" font-family="Albert Sans" font-size="8.9992" lengthAdjust="spacing" textLength="63.1922" x="31.2271" y="349.918">Cache* cache_</text><line style="stroke:#181818;stroke-width:0.3;" x1="19.8282" x2="520.0837" y1="354.5676" y2="354.5676"/><ellipse cx="25.8276" cy="363.2668" fill="#84BE84" rx="1.7998" ry="1.7998" style="stroke:#038048;stroke-width:0.5999;"/><text fill="#000000" font-family="Albert Sans" font-size="8.9992" lengthAdjust="spacing" textLength="314.6743" x="31.2271" y="365.5166">TableCache(const std::string&amp; dbname, const Options&amp; options, int entries)</text><ellipse cx="25.8276" cy="374.0658" fill="#84BE84" rx="1.7998" ry="1.7998" style="stroke:#038048;stroke-width:0.5999;"/><text fill="#000000" font-family="Albert Sans" font-size="8.9992" lengthAdjust="spacing" textLength="485.8568" x="31.2271" y="376.3156">Iterator* NewIterator(const ReadOptions&amp; options, uint64_t file_number, uint64_t file_size, Table** tableptr = nullptr)</text><ellipse cx="25.8276" cy="384.8648" fill="#84BE84" rx="1.7998" ry="1.7998" style="stroke:#038048;stroke-width:0.5999;"/><text fill="#000000" font-family="Albert Sans" font-size="8.9992" lengthAdjust="spacing" textLength="410.0387" x="31.2271" y="387.1146">Status Get(const ReadOptions&amp; options, uint64_t file_number, uint64_t file_size, const Slice&amp; k, ...)</text><ellipse cx="25.8276" cy="395.6638" fill="#84BE84" rx="1.7998" ry="1.7998" style="stroke:#038048;stroke-width:0.5999;"/><text fill="#000000" font-family="Albert Sans" font-size="8.9992" lengthAdjust="spacing" textLength="134.5917" x="31.2271" y="397.9136">void Evict(uint64_t file_number)</text><text fill="#000000" font-family="Albert Sans" font-size="8.9992" lengthAdjust="spacing" textLength="2.5198" x="31.2271" y="408.7127">&#160;</text><rect fill="#F24D5C" height="3.5997" style="stroke:#C82930;stroke-width:0.5999;" width="3.5997" x="24.0278" y="415.462"/><text fill="#000000" font-family="Albert Sans" font-size="8.9992" lengthAdjust="spacing" textLength="311.0926" x="31.2271" y="419.5117">Status FindTable(uint64_t file_number, uint64_t file_size, Cache::Handle**)</text></g><!--class Table--><g id="elem_Table"><rect codeLine="36" fill="#F1F1F1" height="125.9885" id="Table" rx="1.4999" ry="1.4999" style="stroke:#181818;stroke-width:0.3;" width="408.5478" x="387.8526" y="145.7867"/><ellipse cx="578.1657" cy="155.3858" fill="#ADD1B2" rx="6.5994" ry="6.5994" style="stroke:#181818;stroke-width:0.5999;"/><path d="M579.3161,158.4966 Q579.0085,158.6547 578.6702,158.7338 Q578.3318,158.8129 577.9583,158.8129 Q576.6313,158.8129 575.9326,157.9385 Q575.234,157.0641 575.234,155.4119 Q575.234,153.7553 575.9326,152.8809 Q576.6313,152.0064 577.9583,152.0064 Q578.3318,152.0064 578.6746,152.0855 Q579.0173,152.1646 579.3161,152.3228 L579.3161,153.7641 Q578.9822,153.4565 578.668,153.3137 Q578.3538,153.1709 578.0198,153.1709 Q577.308,153.1709 576.9455,153.7355 Q576.583,154.3002 576.583,155.4119 Q576.583,156.5192 576.9455,157.0838 Q577.308,157.6485 578.0198,157.6485 Q578.3538,157.6485 578.668,157.5057 Q578.9822,157.3629 579.3161,157.0553 Z " fill="#000000"/><text fill="#000000" font-family="Albert Sans" font-size="8.9992" lengthAdjust="spacing" textLength="22.8219" x="590.4646" y="158.5355">Table</text><line style="stroke:#181818;stroke-width:0.3;" x1="388.4525" x2="795.8004" y1="164.9849" y2="164.9849"/><rect fill="#FFFFFF" fill-opacity="0.00000" height="3.5997" style="stroke:#C82930;stroke-width:0.5999;" width="3.5997" x="392.6521" y="171.8843"/><text fill="#000000" font-family="Albert Sans" font-size="8.9992" lengthAdjust="spacing" textLength="66.7019" x="399.8515" y="175.9339">Rep* const rep_</text><line style="stroke:#181818;stroke-width:0.3;" x1="388.4525" x2="795.8004" y1="180.5835" y2="180.5835"/><ellipse cx="394.452" cy="189.2827" fill="#84BE84" rx="1.7998" ry="1.7998" style="stroke:#038048;stroke-width:0.5999;"/><text fill="#000000" font-family="Albert Sans" font-size="8.9992" lengthAdjust="spacing" text-decoration="underline" textLength="392.9492" x="399.8515" y="191.5325">Status Open(const Options&amp; options, RandomAccessFile* file, uint64_t file_size, Table** table)</text><ellipse cx="394.452" cy="200.0817" fill="#84BE84" rx="1.7998" ry="1.7998" style="stroke:#038048;stroke-width:0.5999;"/><text fill="#000000" font-family="Albert Sans" font-size="8.9992" lengthAdjust="spacing" textLength="203.3094" x="399.8515" y="202.3315">Iterator* NewIterator(const ReadOptions&amp;) const</text><text fill="#000000" font-family="Albert Sans" font-size="8.9992" lengthAdjust="spacing" textLength="2.5198" x="399.8515" y="213.1305">&#160;</text><rect fill="#F24D5C" height="3.5997" style="stroke:#C82930;stroke-width:0.5999;" width="3.5997" x="392.6521" y="219.8799"/><text fill="#000000" font-family="Albert Sans" font-size="8.9992" lengthAdjust="spacing" textLength="290.1515" x="399.8515" y="223.9295">static Iterator* BlockReader(void*, const ReadOptions&amp;, const Slice&amp;)</text><rect fill="#F24D5C" height="3.5997" style="stroke:#C82930;stroke-width:0.5999;" width="3.5997" x="392.6521" y="230.6789"/><text fill="#000000" font-family="Albert Sans" font-size="8.9992" lengthAdjust="spacing" textLength="99.2339" x="399.8515" y="234.7286">explicit Table(Rep* rep)</text><rect fill="#F24D5C" height="3.5997" style="stroke:#C82930;stroke-width:0.5999;" width="3.5997" x="392.6521" y="241.4779"/><text fill="#000000" font-family="Albert Sans" font-size="8.9992" lengthAdjust="spacing" textLength="250.8071" x="399.8515" y="245.5276">Status InternalGet(const ReadOptions&amp;, const Slice&amp; key, ...)</text><rect fill="#F24D5C" height="3.5997" style="stroke:#C82930;stroke-width:0.5999;" width="3.5997" x="392.6521" y="252.2769"/><text fill="#000000" font-family="Albert Sans" font-size="8.9992" lengthAdjust="spacing" textLength="155.9738" x="399.8515" y="256.3266">void ReadMeta(const Footer&amp; footer)</text><rect fill="#F24D5C" height="3.5997" style="stroke:#C82930;stroke-width:0.5999;" width="3.5997" x="392.6521" y="263.076"/><text fill="#000000" font-family="Albert Sans" font-size="8.9992" lengthAdjust="spacing" textLength="200.7807" x="399.8515" y="267.1256">void ReadFilter(const Slice&amp; filter_handle_value)</text></g><!--class Table::Rep--><g id="elem_Table::Rep"><rect codeLine="48" fill="#F1F1F1" height="93.5914" id="Table::Rep" rx="1.4999" ry="1.4999" style="stroke:#181818;stroke-width:0.3;" width="145.3577" x="519.4505" y="4.1996"/><ellipse cx="567.8961" cy="13.7987" fill="#ADD1B2" rx="6.5994" ry="6.5994" style="stroke:#181818;stroke-width:0.5999;"/><path d="M569.0465,16.9095 Q568.7389,17.0677 568.4006,17.1468 Q568.0622,17.2259 567.6887,17.2259 Q566.3617,17.2259 565.663,16.3514 Q564.9643,15.477 564.9643,13.8248 Q564.9643,12.1682 565.663,11.2938 Q566.3617,10.4194 567.6887,10.4194 Q568.0622,10.4194 568.405,10.4985 Q568.7477,10.5775 569.0465,10.7357 L569.0465,12.177 Q568.7125,11.8694 568.3984,11.7266 Q568.0842,11.5838 567.7502,11.5838 Q567.0384,11.5838 566.6759,12.1485 Q566.3133,12.7131 566.3133,13.8248 Q566.3133,14.9321 566.6759,15.4968 Q567.0384,16.0614 567.7502,16.0614 Q568.0842,16.0614 568.3984,15.9186 Q568.7125,15.7758 569.0465,15.4682 Z " fill="#000000"/><text fill="#000000" font-family="Albert Sans" font-size="8.9992" lengthAdjust="spacing" textLength="43.367" x="580.195" y="16.9485">Table::Rep</text><line style="stroke:#181818;stroke-width:0.3;" x1="520.0505" x2="664.2083" y1="23.3979" y2="23.3979"/><ellipse cx="526.0499" cy="32.0971" fill="#FFFFFF" fill-opacity="0.00000" rx="1.7998" ry="1.7998" style="stroke:#038048;stroke-width:0.5999;"/><text fill="#000000" font-family="Albert Sans" font-size="8.9992" lengthAdjust="spacing" textLength="97.8481" x="531.4494" y="34.3469">RandomAccessFile* file</text><ellipse cx="526.0499" cy="42.8961" fill="#FFFFFF" fill-opacity="0.00000" rx="1.7998" ry="1.7998" style="stroke:#038048;stroke-width:0.5999;"/><text fill="#000000" font-family="Albert Sans" font-size="8.9992" lengthAdjust="spacing" textLength="74.5672" x="531.4494" y="45.1459">uint64_t cache_id</text><ellipse cx="526.0499" cy="53.6951" fill="#FFFFFF" fill-opacity="0.00000" rx="1.7998" ry="1.7998" style="stroke:#038048;stroke-width:0.5999;"/><text fill="#000000" font-family="Albert Sans" font-size="8.9992" lengthAdjust="spacing" textLength="98.9009" x="531.4494" y="55.9449">FilterBlockReader* filter</text><ellipse cx="526.0499" cy="64.4941" fill="#FFFFFF" fill-opacity="0.00000" rx="1.7998" ry="1.7998" style="stroke:#038048;stroke-width:0.5999;"/><text fill="#000000" font-family="Albert Sans" font-size="8.9992" lengthAdjust="spacing" textLength="91.7736" x="531.4494" y="66.7439">const char* filter_data</text><ellipse cx="526.0499" cy="75.2931" fill="#FFFFFF" fill-opacity="0.00000" rx="1.7998" ry="1.7998" style="stroke:#038048;stroke-width:0.5999;"/><text fill="#000000" font-family="Albert Sans" font-size="8.9992" lengthAdjust="spacing" textLength="129.7591" x="531.4494" y="77.5429">BlockHandle metaindex_handle</text><ellipse cx="526.0499" cy="86.0921" fill="#FFFFFF" fill-opacity="0.00000" rx="1.7998" ry="1.7998" style="stroke:#038048;stroke-width:0.5999;"/><text fill="#000000" font-family="Albert Sans" font-size="8.9992" lengthAdjust="spacing" textLength="79.2198" x="531.4494" y="88.3419">Block* index_block</text><line style="stroke:#181818;stroke-width:0.3;" x1="520.0505" x2="664.2083" y1="92.9915" y2="92.9915"/></g><!--reverse link Cache to ShardedLRUCache--><g id="link_Cache_ShardedLRUCache"><path codeLine="57" d="M175.6091,100.6485 C191.2676,118.5029 202.7815,131.616 219.7779,150.9882 " fill="#FFFFFF" fill-opacity="0.00000" id="Cache-backto-ShardedLRUCache" style="stroke:#181818;stroke-width:0.5999;"/><polygon fill="#FFFFFF" fill-opacity="0.00000" points="168.4886,92.5295,172.9027,103.022,178.3154,98.275,168.4886,92.5295" style="stroke:#181818;stroke-width:0.5999;"/><text fill="#000000" font-family="Albert Sans" font-size="8.9992" lengthAdjust="spacing" textLength="17.9984" x="197.7419" y="124.9386">&#23454;&#29616;</text></g><!--reverse link LRUCache to ShardedLRUCache--><g id="link_LRUCache_ShardedLRUCache"><path codeLine="58" d="M307.4061,72.4304 C302.1326,91.5566 294.2311,120.187 285.7239,151.0242 " fill="#FFFFFF" fill-opacity="0.00000" id="LRUCache-backto-ShardedLRUCache" style="stroke:#181818;stroke-width:0.5999;"/><polygon fill="#181818" points="309.3197,65.49,306.0495,68.3223,307.4061,72.4304,310.6764,69.5981,309.3197,65.49" style="stroke:#181818;stroke-width:0.5999;"/><text fill="#000000" font-family="Albert Sans" font-size="8.9992" lengthAdjust="spacing" textLength="17.9984" x="296.025" y="124.9386">&#20851;&#32852;</text></g><!--reverse link ShardedLRUCache to TableCache--><g id="link_ShardedLRUCache_TableCache"><path codeLine="59" d="M269.9573,273.689 C269.9573,290.9974 269.9573,302.7023 269.9573,319.6328 " fill="#FFFFFF" fill-opacity="0.00000" id="ShardedLRUCache-backto-TableCache" style="stroke:#181818;stroke-width:0.5999;"/><polygon fill="#181818" points="269.9573,266.4897,267.5576,270.0893,269.9573,273.689,272.3571,270.0893,269.9573,266.4897" style="stroke:#181818;stroke-width:0.5999;"/><text fill="#000000" font-family="Albert Sans" font-size="8.9992" lengthAdjust="spacing" textLength="17.9984" x="270.5573" y="298.9227">&#20851;&#32852;</text></g><!--reverse link Cache to TableCache--><g id="link_Cache_TableCache"><path codeLine="60" d="M123.9072,99.6701 C117.3678,145.9438 114.0916,215.0683 143.3689,271.7752 C152.8,290.0375 167.2467,306.02 183.0553,319.5308 " fill="#FFFFFF" fill-opacity="0.00000" id="Cache-backto-TableCache" style="stroke:#181818;stroke-width:0.5999;stroke-dasharray:7.0,7.0;"/><polygon fill="#181818" points="124.9146,92.5415,122.0347,95.77,123.9072,99.6701,126.7871,96.4416,124.9146,92.5415" style="stroke:#181818;stroke-width:0.5999;"/><text fill="#000000" font-family="Albert Sans" font-size="8.9992" lengthAdjust="spacing" textLength="17.9984" x="143.9688" y="211.9306">&#20851;&#32852;</text></g><!--reverse link Table::Rep to Table--><g id="link_Table::Rep_Table"><path codeLine="61" d="M592.1279,105.1404 C592.1279,120.109 592.1279,129.7621 592.1279,145.7027 " fill="#FFFFFF" fill-opacity="0.00000" id="Table::Rep-backto-Table" style="stroke:#181818;stroke-width:0.5999;"/><polygon fill="#181818" points="592.1279,97.9411,589.7281,101.5407,592.1279,105.1404,594.5277,101.5407,592.1279,97.9411" style="stroke:#181818;stroke-width:0.5999;"/><text fill="#000000" font-family="Albert Sans" font-size="8.9992" lengthAdjust="spacing" textLength="17.9984" x="592.7278" y="124.9386">&#20851;&#32852;</text></g><!--reverse link Table to TableCache--><g id="link_Table_TableCache"><path codeLine="62" d="M461.1352,275.2431 C429.884,290.9557 403.1272,304.4062 373.0519,319.5308 " fill="#FFFFFF" fill-opacity="0.00000" id="Table-backto-TableCache" style="stroke:#181818;stroke-width:0.5999;"/><polygon fill="#181818" points="467.5673,272.0091,463.2732,271.4821,461.1352,275.2431,465.4292,275.7702,467.5673,272.0091" style="stroke:#181818;stroke-width:0.5999;"/><text fill="#000000" font-family="Albert Sans" font-size="8.9992" lengthAdjust="spacing" textLength="17.9984" x="431.6426" y="298.9227">&#20851;&#32852;</text></g><!--SRC=[hLHDZzCm4BtdLupsKAMXhHO948hWi20AA-s7r08NX28tdbAhZXF5JlUBFN3WoeapFm4XyPiG_0p6SPAssHGMYLEIcUTva_V6evT2PInd2N2SiqAQSQhC2KiGzWxa37C3KwRqdgUxS5DnYN3tlgTZ9X4ITWuFz_VXJ72py8GocCzPZF2KnGk4A-yEh4Hk2YRX1LDSOW27IXE37wTA4uyKCVPWYHS3MAM21x1Yii01Z4QZFZo6_Ou2HscwBB8R1TfmL-wrBUVNHnVbimi94vJ8zAsWpt8BxEQ_zhnOCgrXkc0vHtuqULLBCOJcGzjaz6PvKYGbJh-bR9Rc9WoF2uFd87YKs9U8uWMf-k1UP83gceWo7ZM4vnan2zFcyJNPGzYOPOpI5tt2_bMuT8LvBZZQ7_sJ5ctSBY5Qk5qkDB16jBLQJUWbcqbSJzFwi-BLXeUXDhbGxth0PugcU00kTPePGIyzIDtB04X9G4LWr5QOGvfMPj8yW1Cygp-gkXDa_6Q1nekva1Yf8g7RqevQ1mQkqI00Ov-PoMawL24blLdcgM6cqF0SpN-YspR1tP_6ffM8ZTzLg-_HV5MzZ8NYPTF-xLbB8yAmCZReKxKo5D3yqIFojcqi7RpIn2VYwvhtD4Fbxp9iGfNJv22EKUkniCDZsM-X-B_OstVgMIrSRniddyWqNbemvduvoxNKcmMsvRSgDDVJAJh1B80Si_vQxaExAXMJtIFGDjJknzBIONr36Jz6mwgZupIbQZsObyyj5Ab6eUrBEYzZaRk7KRbnxPcoImUaNjlcXI7bImUxJQ54uufpNt2AEVuD6OEAddAEAwODLWSZpWoZJ8btOmK9_IVD9Yr3rt2T3i15P_R3DkksnAFtms5xAuRmu-kNdv- -USs22Jf17x__-l3PQwzkYrtldGPM9KUZhkI6PCtnxUIEihy1]--></g></svg>